<svg width="26" height="25" viewBox="0 0 26 25" fill="none" xmlns="http://www.w3.org/2000/svg">
<path d="M25.0893 7.35009C25.0307 6.02174 24.8159 5.10851 24.5082 4.31719C24.1908 3.47721 23.7024 2.72519 23.0625 2.10003C22.4374 1.46513 21.6804 0.971796 20.8501 0.65931C20.0542 0.351594 19.1458 0.136784 17.8174 0.0782168C16.4792 0.0146895 16.0543 0 12.6601 0C9.26584 0 8.84099 0.0146895 7.50768 0.0732567C6.17933 0.131824 5.2661 0.346825 4.47497 0.65435C3.63481 0.971796 2.88278 1.46017 2.25762 2.10003C1.62273 2.72519 1.12958 3.48217 0.816903 4.31242C0.509187 5.10851 0.294377 6.01678 0.23581 7.34513C0.172282 8.6834 0.157593 9.10825 0.157593 12.5025C0.157593 15.8967 0.172282 16.3216 0.230849 17.6549C0.289417 18.9832 0.504418 19.8964 0.812134 20.6878C1.12958 21.5277 1.62273 22.2798 2.25762 22.9049C2.88278 23.5398 3.63977 24.0332 4.47001 24.3456C5.2661 24.6534 6.17437 24.8682 7.50291 24.9267C8.83603 24.9855 9.26108 25 12.6553 25C16.0495 25 16.4744 24.9855 17.8077 24.9267C19.136 24.8682 20.0493 24.6534 20.8404 24.3456C22.5205 23.6961 23.8489 22.3677 24.4985 20.6878C24.806 19.8917 25.021 18.9832 25.0796 17.6549C25.1381 16.3216 25.1528 15.8967 25.1528 12.5025C25.1528 9.10825 25.1479 8.6834 25.0893 7.35009ZM22.838 17.5572C22.7842 18.7781 22.5791 19.4374 22.4082 19.877C21.9881 20.9661 21.1237 21.8305 20.0346 22.2506C19.595 22.4215 18.931 22.6266 17.7148 22.6802C16.3962 22.739 16.0007 22.7535 12.665 22.7535C9.32937 22.7535 8.92894 22.739 7.61509 22.6802C6.39414 22.6266 5.73483 22.4215 5.29529 22.2506C4.75331 22.0503 4.25997 21.7328 3.85954 21.3177C3.44442 20.9123 3.12697 20.4239 2.92666 19.8819C2.75573 19.4424 2.55065 18.7781 2.49704 17.5622C2.43828 16.2435 2.42378 15.8479 2.42378 12.5122C2.42378 9.17655 2.43828 8.77612 2.49704 7.46246C2.55065 6.24151 2.75573 5.5822 2.92666 5.14266C3.12697 4.60048 3.44442 4.10734 3.8645 3.70671C4.2697 3.29159 4.75808 2.97415 5.30025 2.77403C5.73979 2.60309 6.40406 2.39801 7.62005 2.34421C8.93867 2.28565 9.33433 2.27096 12.6698 2.27096C16.0104 2.27096 16.4059 2.28565 17.7197 2.34421C18.9407 2.39801 19.6 2.60309 20.0395 2.77403C20.5815 2.97415 21.0749 3.29159 21.4753 3.70671C21.8904 4.11211 22.2079 4.60048 22.4082 5.14266C22.5791 5.5822 22.7842 6.24628 22.838 7.46246C22.8966 8.78108 22.9112 9.17655 22.9112 12.5122C22.9112 15.8479 22.8966 16.2386 22.838 17.5572Z" fill="black"/>
<path d="M12.6601 6.08031C9.11456 6.08031 6.2379 8.95678 6.2379 12.5025C6.2379 16.0482 9.11456 18.9247 12.6601 18.9247C16.2058 18.9247 19.0822 16.0482 19.0822 12.5025C19.0822 8.95678 16.2058 6.08031 12.6601 6.08031ZM12.6601 16.6684C10.3599 16.6684 8.49417 14.8028 8.49417 12.5025C8.49417 10.2021 10.3599 8.33658 12.6601 8.33658C14.9604 8.33658 16.826 10.2021 16.826 12.5025C16.826 14.8028 14.9604 16.6684 12.6601 16.6684Z" fill="black"/>
<path d="M20.8356 5.82639C20.8356 6.65434 20.1643 7.32567 19.3362 7.32567C18.5082 7.32567 17.8369 6.65434 17.8369 5.82639C17.8369 4.99825 18.5082 4.32711 19.3362 4.32711C20.1643 4.32711 20.8356 4.99825 20.8356 5.82639Z" fill="black"/>
</svg>
