<svg width="62" height="61" viewBox="0 0 62 61" fill="none" xmlns="http://www.w3.org/2000/svg">
<path d="M56.5693 31.9776C56.3855 31.0201 55.548 30.3277 54.573 30.3271H52.6093L52.4649 29.4617C52.3208 28.5925 51.636 27.9134 50.7656 27.7766C50.5723 27.7461 50.3771 27.7258 50.1849 27.6993C50.5179 26.1446 50.2412 24.5214 49.412 23.1647C49.8501 22.0283 49.7683 20.7569 49.1882 19.6859C48.6082 18.615 47.588 17.8519 46.3967 17.598C45.6352 13.522 42.0893 10.5592 37.9428 10.5342C37.8412 10.5342 37.7506 10.5475 37.654 10.5505C36.9915 9.51001 35.8992 8.81946 34.6751 8.66721C33.451 8.51496 32.2228 8.9169 31.3256 9.76339C30.1953 9.02866 28.8764 8.63695 27.5283 8.63559C25.3561 8.64448 23.309 9.65269 21.9778 11.3692C20.4997 10.9381 18.9058 11.2028 17.6463 12.0883C16.3868 12.9739 15.5984 14.3843 15.5039 15.921C13.9513 16.5736 12.9411 18.0932 12.9401 19.7773C12.9433 20.0692 12.9774 20.36 13.0418 20.6447C11.6688 22.7146 11.3101 25.2959 12.0666 27.6617C11.794 27.6993 11.5154 27.7329 11.253 27.7715C10.3781 27.9035 9.68714 28.583 9.54048 29.4556L9.39607 30.3241H7.42726C6.45389 30.3247 5.61743 31.015 5.43201 31.9705L0.978786 54.8336C0.804873 55.729 1.04071 56.6552 1.62165 57.3584C2.20259 58.0616 3.06768 58.4679 3.9798 58.4661H25.1873C26.0293 59.8553 28.5879 60.5 31.0001 60.5C33.3869 60.5 35.9212 59.8705 36.7876 58.4661H58.0205C58.9324 58.4679 59.7973 58.0616 60.3782 57.3587C60.9591 56.6558 61.1951 55.7298 61.0215 54.8346L56.5693 31.9776ZM16.0154 21.618C15.1897 21.1215 14.7956 20.1359 15.0514 19.2071C15.3072 18.2782 16.1502 17.6333 17.1137 17.6295C17.788 17.6275 18.4226 17.948 18.8212 18.4919C19.0377 18.7836 19.3934 18.9377 19.7544 18.896C20.1153 18.8544 20.4266 18.6233 20.571 18.2899C20.7154 17.9565 20.6709 17.5714 20.4544 17.2797C19.7638 16.3567 18.7174 15.7663 17.5703 15.6525C17.8735 14.2283 19.1294 13.2088 20.5856 13.2047C20.7096 13.211 20.8332 13.2246 20.9557 13.2454C20.8739 13.4539 20.8026 13.6664 20.7422 13.882C20.6156 14.4204 20.9424 14.9611 21.4778 15.0994C22.0133 15.2377 22.5611 14.9228 22.711 14.3905C22.8266 13.9435 23.0043 13.515 23.2388 13.1173C24.1409 11.606 25.7683 10.6774 27.5283 10.6695C28.4861 10.6737 29.4221 10.9564 30.2222 11.4831C30.0698 11.9113 29.989 12.3617 29.9832 12.8163C29.9832 13.3779 30.4385 13.8332 31.0001 13.8332C31.5618 13.8332 32.0171 13.3779 32.0171 12.8163C32.0171 11.6348 32.9748 10.6771 34.1562 10.6771C35.3377 10.6771 36.2954 11.6348 36.2954 12.8163C36.2954 13.3779 36.7507 13.8332 37.3123 13.8332C37.874 13.8332 38.3293 13.3779 38.3293 12.8163C38.3293 12.738 38.31 12.6637 38.3059 12.5854C41.2178 12.7651 43.6664 14.8349 44.3283 17.6763C43.8539 17.8144 43.4082 18.0365 43.0123 18.3322C42.7217 18.5502 42.5694 18.9067 42.6129 19.2674C42.6563 19.6281 42.8889 19.9382 43.223 20.081C43.5571 20.2237 43.942 20.1773 44.2327 19.9593C45.0453 19.3576 46.1679 19.4056 46.9263 20.0745C47.6846 20.7433 47.8725 21.8511 47.3771 22.7325C47.1557 23.1218 46.8193 23.433 46.414 23.6234C45.989 23.8292 45.7616 24.3004 45.8649 24.7612C45.9682 25.2219 46.3751 25.551 46.8473 25.5556C46.9964 25.5558 47.1437 25.5228 47.2784 25.459C47.548 25.3284 47.8026 25.1692 48.0381 24.9841C48.5638 26.4785 48.2341 28.1407 47.1778 29.3214L47.1534 29.3468C45.8285 30.782 43.7151 31.1699 41.9669 30.2986C41.7957 30.2082 41.6312 30.1056 41.4747 29.9915C42.2238 28.9414 42.3272 27.562 41.7432 26.4119C41.5797 26.0872 41.2554 25.8745 40.8925 25.8538C40.5297 25.833 40.1833 26.0075 39.9839 26.3114C39.7845 26.6153 39.7624 27.0025 39.9259 27.3271C40.2603 27.9993 40.0517 28.8149 39.4357 29.2441C39.074 29.4849 38.6271 29.5611 38.206 29.4537C37.7849 29.3463 37.4291 29.0654 37.2269 28.6807C37.0643 28.3557 36.7407 28.1421 36.378 28.1204C36.0152 28.0987 35.6685 28.2722 35.4683 28.5755C35.2682 28.8788 35.245 29.2659 35.4076 29.5908C36.004 30.7948 37.2328 31.5551 38.5764 31.5515C39.0138 31.5486 39.4468 31.4634 39.8527 31.3003C40.2159 31.6183 40.6161 31.8915 41.0445 32.1139C42.4939 32.8652 44.1793 33.021 45.7418 32.5481C44.7369 33.9204 43.2328 34.8426 41.554 35.1159C41.0318 35.201 40.662 35.6723 40.7036 36.1998C40.7453 36.7273 41.1846 37.1347 41.7137 37.1366C41.7678 37.1366 41.8219 37.1325 41.8754 37.1244C42.4946 37.0172 43.0998 36.8405 43.6795 36.5976C43.9927 37.1515 44.247 37.7368 44.4381 38.3437C44.4731 38.4497 44.4909 38.5606 44.491 38.6722C44.4907 39.1117 44.2282 39.5087 43.8239 39.681C43.3561 39.8619 42.825 39.7192 42.511 39.3281C41.7234 38.4033 40.6921 37.718 39.5344 37.3502C37.3367 36.6139 36.4886 35.9559 36.1286 35.24C36.6563 35.1742 37.1777 35.0653 37.6876 34.9146C38.0349 34.8078 38.2989 34.5238 38.3801 34.1695C38.4612 33.8153 38.3472 33.4447 38.0811 33.1973C37.8149 32.95 37.437 32.8634 37.0896 32.9702C36.519 33.1452 35.93 33.2534 35.3344 33.2925C34.1869 33.3822 33.0341 33.2083 31.9642 32.7841C31.5625 32.6274 31.1056 32.7411 30.8242 33.0678C29.3436 34.7686 26.8094 35.0577 24.9838 33.734C23.1581 32.4104 22.645 29.912 23.8012 27.9759C23.9884 27.6633 23.9947 27.2745 23.8176 26.956C23.6405 26.6374 23.3069 26.4376 22.9425 26.4317C22.5781 26.4258 22.2383 26.6148 22.051 26.9275C21.8084 27.3404 21.6132 27.7795 21.4693 28.2363C20.6685 28.1941 20.037 27.5391 20.0242 26.7373V26.7119C20.0237 26.4435 19.9159 26.1865 19.725 25.998C19.534 25.8095 19.2756 25.7052 19.0073 25.7081C18.4432 25.7137 17.9892 26.1732 17.9903 26.7373C17.9948 28.5408 19.3549 30.0524 21.1479 30.2468C21.1516 30.5877 21.1825 30.9278 21.2405 31.2637C18.9698 31.7551 16.6148 30.9389 15.1351 29.1478C13.6555 27.3568 13.2983 24.89 14.2093 22.7529C14.4368 22.9831 14.6908 23.1855 14.9659 23.3559C15.4463 23.6373 16.0637 23.4801 16.351 23.0032C16.6383 22.5263 16.4887 21.9071 16.0154 21.6139V21.618ZM11.5408 29.7871C12.0096 29.718 12.4937 29.6569 12.9747 29.5939C14.855 32.5986 18.4511 34.0576 21.8934 33.2122C22.8183 34.9676 24.5083 36.1918 26.4646 36.5234C28.4209 36.8549 30.42 36.256 31.8717 34.9034C32.5628 35.1095 33.2746 35.2384 33.994 35.2878C34.4852 37.1508 35.9049 38.2797 38.8876 39.2793C39.6917 39.5314 40.409 40.0039 40.9581 40.6431C41.5686 41.369 42.4666 41.7908 43.4151 41.7973C43.8299 41.7971 44.2404 41.7135 44.6222 41.5512C45.7749 41.0585 46.5227 39.9258 46.5228 38.6722C46.5238 38.3453 46.4716 38.0204 46.3683 37.7102C46.1396 36.9916 45.8384 36.2982 45.4693 35.6407C47.1986 34.3975 48.4032 32.5552 48.8486 30.4725C49.0652 30.2152 49.2611 29.9411 49.4344 29.6529C49.775 29.6966 50.1157 29.7353 50.4584 29.7922L54.1296 51.8742C46.9535 49.478 39.1932 49.478 32.0171 51.8742V39.1441C32.0171 38.5824 31.5618 38.1271 31.0001 38.1271C30.4385 38.1271 29.9832 38.5824 29.9832 39.1441V51.8783C22.8079 49.4799 15.0477 49.477 7.87065 51.8702L11.5408 29.7871ZM3.1876 56.058C2.99544 55.8258 2.91711 55.52 2.97404 55.2241L7.42726 32.361H9.05438L5.86319 51.5397C5.75095 52.2377 6.00799 52.9442 6.54258 53.4069C7.07718 53.8696 7.81317 54.0227 8.48794 53.8115C13.9093 52.0551 19.685 51.6886 25.2849 52.7458L24.9818 56.4322H3.9798C3.67301 56.4324 3.38228 56.2951 3.1876 56.058ZM31.0001 58.4661C28.5503 58.4661 27.1449 57.742 26.9384 57.4197L27.2883 53.1993C28.4065 53.4777 29.5008 53.8447 30.5608 54.2966C30.6979 54.3627 30.848 54.3974 31.0001 54.3983C31.1527 54.3981 31.3033 54.3633 31.4405 54.2966C32.4999 53.842 33.5938 53.4727 34.712 53.1922L35.0618 57.4186C34.8554 57.742 33.45 58.4661 31.0001 58.4661ZM58.8127 56.058C58.618 56.2951 58.3273 56.4324 58.0205 56.4322H37.0215L36.7164 52.7386C42.3194 51.6837 48.0976 52.0533 53.5205 53.8136C54.1951 54.022 54.9295 53.8667 55.462 53.4031C55.9946 52.9395 56.2495 52.2335 56.1361 51.5366L52.9479 32.362H54.5751L59.0293 55.223C59.0857 55.5197 59.0062 55.8261 58.8127 56.058Z" fill="white"/>
<path d="M27.63 23.5695C27.2137 23.9462 27.1814 24.5889 27.5578 25.0054C28.4205 25.9579 29.5606 26.6153 30.8171 26.8847C30.248 27.6867 29.3251 28.1625 28.3418 28.161C27.7802 28.161 27.3249 28.6163 27.3249 29.178C27.3249 29.7396 27.7802 30.1949 28.3418 30.1949C30.4471 30.2033 32.336 28.9031 33.0798 26.9336C35.6085 26.5145 37.6104 24.5681 38.1005 22.0522C38.1762 21.6923 38.0517 21.3196 37.775 21.0775C37.4982 20.8353 37.1123 20.7614 36.7657 20.8843C36.4191 21.0071 36.1657 21.3075 36.1032 21.6698C35.9038 22.7187 35.2986 23.6466 34.4191 24.2519C32.7272 25.3914 30.458 25.1328 29.0659 23.6417C28.6892 23.2254 28.0465 23.1931 27.63 23.5695Z" fill="white"/>
<path d="M24.0849 22.4661C24.6465 22.4661 25.1018 22.0108 25.1018 21.4492C25.1018 20.7479 25.3804 20.0754 25.8763 19.5795C26.3721 19.0837 27.0447 18.8051 27.7459 18.8051C28.3075 18.8051 28.7628 18.3498 28.7628 17.7881C28.7628 17.2265 28.3075 16.7712 27.7459 16.7712C25.1635 16.774 23.0707 18.8667 23.0679 21.4492C23.0679 21.7189 23.1751 21.9775 23.3658 22.1682C23.5565 22.359 23.8152 22.4661 24.0849 22.4661Z" fill="white"/>
<path d="M32.0171 2.5339V1.51695C32.0171 0.955304 31.5618 0.5 31.0001 0.5C30.4385 0.5 29.9832 0.955304 29.9832 1.51695V2.5339C29.9832 3.09554 30.4385 3.55085 31.0001 3.55085C31.5618 3.55085 32.0171 3.09554 32.0171 2.5339Z" fill="white"/>
<path d="M47.6883 7.79763L46.6713 8.81458C46.407 9.06991 46.3009 9.44801 46.394 9.80357C46.4871 10.1591 46.7647 10.4368 47.1203 10.5299C47.4758 10.6229 47.854 10.5169 48.1093 10.2525L49.1262 9.23559C49.3906 8.98026 49.4966 8.60216 49.4036 8.2466C49.3105 7.89105 49.0328 7.61337 48.6773 7.52031C48.3217 7.42724 47.9436 7.53326 47.6883 7.79763Z" fill="white"/>
<path d="M14.61 10.5505C15.0212 10.5504 15.3919 10.3027 15.5493 9.9227C15.7067 9.54275 15.6197 9.10542 15.329 8.81458L14.312 7.79763C14.0567 7.53326 13.6786 7.42724 13.323 7.52031C12.9675 7.61337 12.6898 7.89105 12.5967 8.2466C12.5037 8.60216 12.6097 8.98026 12.874 9.23559L13.891 10.2525C14.0817 10.4433 14.3403 10.5505 14.61 10.5505Z" fill="white"/>
<path d="M22.4384 6.27119C22.5721 6.2709 22.7043 6.24465 22.8279 6.1939C23.0772 6.09065 23.2752 5.89258 23.3784 5.6433C23.4816 5.39402 23.4815 5.11395 23.3781 4.86475L22.2096 2.04576C22.0758 1.70242 21.7667 1.45835 21.4016 1.4078C21.0366 1.35725 20.6728 1.50813 20.4507 1.80219C20.2286 2.09624 20.1829 2.48745 20.3313 2.82475L21.4988 5.64373C21.6563 6.02365 22.0272 6.27129 22.4384 6.27119Z" fill="white"/>
<path d="M41.1188 1.49559C40.6001 1.28102 40.0057 1.52726 39.7906 2.04576L38.6222 4.86475C38.5185 5.11407 38.5182 5.39439 38.6214 5.64392C38.7246 5.89344 38.9228 6.09167 39.1723 6.19492C39.2959 6.24567 39.4282 6.27192 39.5618 6.2722C39.9731 6.27231 40.344 6.02467 40.5015 5.64475L41.6689 2.82576C41.7726 2.57644 41.7729 2.29611 41.6697 2.04659C41.5665 1.79707 41.3683 1.59883 41.1188 1.49559Z" fill="white"/>
<path d="M51.6696 18.38C51.8033 18.3798 51.9357 18.3531 52.0591 18.3017L54.8771 17.1342C55.2128 16.9953 55.4489 16.6878 55.4964 16.3275C55.5439 15.9673 55.3956 15.6091 55.1074 15.3879C54.8192 15.1666 54.4348 15.1159 54.0991 15.2549L51.2801 16.4224C50.8303 16.6071 50.5742 17.0845 50.6691 17.5615C50.764 18.0385 51.1833 18.3815 51.6696 18.38Z" fill="white"/>
<path d="M9.94116 18.3017C10.4601 18.5168 11.0552 18.2705 11.2703 17.7515C11.4854 17.2326 11.2391 16.6375 10.7201 16.4224L7.90116 15.2549C7.3822 15.0401 6.78734 15.2866 6.57251 15.8056C6.35768 16.3246 6.60423 16.9194 7.12319 17.1342L9.94116 18.3017Z" fill="white"/>
</svg>
