<svg width="60" height="61" viewBox="0 0 60 61" fill="none" xmlns="http://www.w3.org/2000/svg">
<path d="M43.8942 29.3556C43.41 29.346 43.0083 29.7329 42.9993 30.2182C42.8975 35.7714 41.9538 38.4412 36.5687 43.3058C35.5752 44.2033 35.2362 45.7266 35.5319 47.9631C35.5904 48.4052 35.968 48.7269 36.4022 48.7269C36.4406 48.7269 36.4794 48.7245 36.5186 48.7192C36.9997 48.6556 37.3383 48.2137 37.2747 47.7327C37.0693 46.1799 37.237 45.0711 37.7472 44.6103C40.6365 42.0004 42.2981 39.9887 43.3032 37.884C44.2737 35.8518 44.6948 33.6402 44.7569 30.2505C44.7659 29.765 44.3796 29.3644 43.8942 29.3556Z" fill="white"/>
<path d="M38.2199 51.5832C38.0685 51.1219 37.572 50.8708 37.1108 51.0221C36.6496 51.1735 36.3984 51.67 36.5497 52.1311C36.7136 52.6305 36.8977 53.1555 37.097 53.6918C37.2009 53.9714 37.1823 54.2707 37.0444 54.5345C36.9067 54.7979 36.6718 54.9839 36.3832 55.0582L22.1918 58.7097C21.6893 58.8393 21.164 58.5755 20.9693 58.0971C20.1081 55.9796 18.0909 51.02 12.9225 51.72C11.4819 51.9189 8.44405 52.3863 7.61997 52.2264C5.49018 51.8785 5.00572 50.8724 4.82654 50.146C4.65579 49.4734 4.85631 48.9031 5.18772 48.3839C5.5619 47.7164 5.34159 46.8108 4.69681 46.3651C4.39575 46.157 4.06551 46.0115 3.79797 45.9153C3.83067 45.812 3.92383 45.6744 4.15083 45.511C4.34384 45.372 4.47251 45.1607 4.50708 44.9253C4.54165 44.6899 4.47931 44.4506 4.33434 44.2619C4.29204 44.2068 3.9045 43.7145 3.09367 43.0616C3.73352 42.5772 4.7199 41.6471 4.57447 40.6017C4.50661 40.1141 4.17895 39.4572 3.00308 39.0962C1.75923 38.7144 1.75806 38.238 1.75759 37.9821C1.75689 37.6339 1.93912 37.3983 2.60592 36.8859C3.63848 36.0924 4.81869 35.0597 5.74343 33.4166C6.07284 32.8315 6.11199 32.1168 5.84843 31.5046C5.69925 31.1579 5.49557 30.836 5.29869 30.5247C5.04603 30.1252 4.73162 29.628 4.78705 29.3899C4.82185 29.2405 4.92369 29.0259 5.04135 28.7775C5.34252 28.1421 5.75503 27.2717 5.84198 25.9426C6.01624 23.2763 6.89129 20.9317 8.44299 18.9741C8.74452 18.5938 8.68054 18.041 8.30014 17.7394C7.91974 17.4379 7.36696 17.5019 7.06544 17.8823C5.28768 20.1252 4.28583 22.7985 4.0879 25.8281C4.02286 26.8223 3.72016 27.4611 3.45297 28.0248C3.29863 28.3503 3.15285 28.6579 3.07515 28.9908C2.85237 29.9457 3.385 30.7879 3.81297 31.4645C3.9809 31.7299 4.13946 31.9806 4.2338 32.2C4.28196 32.3118 4.27364 32.4443 4.21153 32.5547C3.59125 33.657 2.81569 34.508 1.53482 35.4924C0.922269 35.9628 -0.00317235 36.6739 -0.000359815 37.9861C0.0026871 39.3321 0.839534 40.271 2.48721 40.7767C2.63194 40.8211 2.7271 40.8634 2.78745 40.8959C2.64096 41.1447 2.18639 41.5738 1.7583 41.853C1.66244 41.915 1.57958 41.9951 1.51431 42.0889C1.1611 42.5966 0.984966 43.63 1.94732 44.396C2.12826 44.54 2.28354 44.6741 2.41385 44.7931C1.82158 45.6567 2.00639 46.5954 2.36241 47.116C2.61882 47.4643 2.92831 47.4367 3.54484 47.7189C3.21121 48.317 2.78241 49.1981 3.11992 50.5668C3.58129 52.4375 4.99986 53.5795 7.33661 53.9612C8.49409 54.1666 11.1252 53.74 13.1582 53.4619C16.5138 53.008 18.1128 55.7397 19.341 58.7595C19.7759 59.8288 20.8223 60.5 21.937 60.5C22.1665 60.5 22.3992 60.4715 22.6298 60.4122L36.8213 56.7607C37.5872 56.5636 38.2363 56.049 38.6023 55.3488C38.9684 54.6482 39.0203 53.8211 38.7447 53.0794C38.5533 52.5644 38.3767 52.0609 38.2199 51.5832Z" fill="white"/>
<path d="M10.7495 16.5236C10.9219 16.5236 11.0962 16.473 11.2487 16.3674C14.1325 14.3723 18.0187 13.2735 22.1914 13.2735C22.7193 13.2735 23.257 13.2879 23.7897 13.3161C24.2752 13.3431 24.6882 12.9699 24.714 12.4852C24.7398 12.0005 24.3677 11.5867 23.883 11.5609C23.3194 11.5309 22.7503 11.5158 22.1914 11.5158C17.6648 11.5158 13.4234 12.7254 10.2485 14.9219C9.84938 15.1981 9.74965 15.7456 10.0257 16.1447C10.1965 16.3913 10.4707 16.5237 10.7495 16.5236Z" fill="white"/>
<path d="M30.5635 42.609C30.7884 42.6446 31.0144 42.662 31.2398 42.662C32.2011 42.662 33.1488 42.3433 33.9161 41.7488C34.8769 41.0043 35.4698 39.9257 35.5858 38.7116C35.586 38.7101 35.586 38.7085 35.5861 38.707C35.9033 38.5517 36.2099 38.3689 36.5016 38.1569C37.8197 37.1993 38.686 35.7856 38.9409 34.1764C39.0168 33.697 38.6897 33.2467 38.2103 33.1708C37.7312 33.095 37.2806 33.422 37.2047 33.9013C37.0233 35.0469 36.4066 36.0532 35.4684 36.7349C34.5301 37.4165 33.3823 37.6922 32.2371 37.5106C31.6017 37.41 31.0073 37.1726 30.4843 36.8181C30.6067 36.595 30.7124 36.3595 30.798 36.112C30.9565 35.6532 30.713 35.1527 30.2542 34.9942C29.7957 34.8358 29.2949 35.0792 29.1365 35.538C28.6967 36.8115 27.4102 37.5824 26.0774 37.3713C25.6765 37.3078 25.303 37.1614 24.9671 36.9364C24.6141 36.6997 24.1427 36.7496 23.8468 37.0544C23.4571 37.456 22.8959 37.6439 22.3449 37.5566C21.9052 37.487 21.5147 37.2526 21.2453 36.8969C21.0343 36.618 20.6779 36.4907 20.3376 36.5731C20.0268 36.6485 19.7074 36.661 19.3889 36.6106C18.1462 36.4138 17.2515 35.2782 17.3519 34.0254C17.3866 33.592 17.0993 33.1982 16.6758 33.0993C16.1036 32.9656 15.7105 32.4419 15.7408 31.854C15.7576 31.5298 15.8995 31.2315 16.1407 31.0142C16.31 30.87 16.7347 30.6389 17.2008 30.7263C17.665 30.8209 18.1207 30.5309 18.2312 30.0702C18.4602 29.1159 19.3404 28.461 20.3203 28.5108C20.683 28.5296 21.0344 28.6448 21.3364 28.8439C21.5772 29.0027 21.8806 29.0333 22.148 28.9257C22.6513 28.7233 23.202 28.6616 23.7404 28.7467C24.2052 28.8203 24.6427 29.0041 25.0211 29.2747C24.8428 29.599 24.7201 29.955 24.6604 30.3314C24.5845 30.8108 24.9116 31.2611 25.391 31.337C25.4375 31.3444 25.4838 31.3479 25.5296 31.3479C25.9544 31.3479 26.328 31.0392 26.3966 30.6063C26.4585 30.2157 26.6688 29.8725 26.9887 29.64C27.3087 29.4076 27.7 29.3136 28.0908 29.3755C28.5941 29.4552 29.0159 29.7825 29.2189 30.251C29.4119 30.6963 29.9293 30.9012 30.3748 30.7079C30.8202 30.5149 31.0247 29.9974 30.8317 29.552C30.3882 28.5286 29.4664 27.8135 28.3657 27.6392C27.6359 27.5237 26.9053 27.6575 26.2714 28.0156C25.6242 27.4918 24.8456 27.1419 24.0152 27.0104C23.309 26.8985 22.5895 26.9469 21.9094 27.1491C21.4442 26.9172 20.9337 26.7823 20.4109 26.7553C18.8386 26.6755 17.4095 27.5666 16.7688 28.9489C16.0998 28.9895 15.4685 29.2531 14.9634 29.7085C14.3736 30.2404 14.0262 30.9701 13.9852 31.7632C13.9274 32.8832 14.4986 33.9081 15.4159 34.4616C14.8939 34.8135 14.2816 35.0035 13.6435 35.0035C13.6427 35.0035 13.642 35.0036 13.641 35.0035C13.1559 35.0035 12.7623 35.3967 12.7621 35.8819C12.7619 36.3673 13.1552 36.7611 13.6406 36.7613H13.6435C14.5 36.7613 15.3259 36.5411 16.0568 36.1299C16.6517 37.2754 17.7634 38.1328 19.114 38.3468C19.4816 38.405 19.8503 38.4143 20.2151 38.375C20.4764 38.6252 20.7741 38.8307 21.0973 38.9872L23.0001 44.9439C23.2633 45.7677 24.0209 46.321 24.8857 46.321H27.0097C27.513 46.321 27.9747 46.0899 28.2763 45.6869C28.5779 45.2839 28.6695 44.7759 28.5277 44.293L27.687 41.4318C28.0488 41.4714 28.3623 41.5858 28.5934 41.7633C29.166 42.2031 29.8472 42.4955 30.5635 42.609ZM24.8858 44.5631C24.789 44.5631 24.7041 44.5011 24.6747 44.409L23.0445 39.306C23.591 39.2371 24.116 39.0411 24.5732 38.7291C24.7517 38.8137 24.9359 38.8848 25.1242 38.945L26.775 44.5632H24.8858V44.5631ZM27.7738 39.6707C27.5291 39.6319 27.2973 39.5419 27.0925 39.4082L27.0128 39.137C27.8755 39.0423 28.6839 38.7015 29.3481 38.1698C30.1186 38.7269 31.0083 39.0959 31.9621 39.2469C32.2852 39.2981 32.6084 39.3233 32.9293 39.3233C33.1737 39.3233 33.4169 39.3083 33.6577 39.2793C33.488 39.7015 33.21 40.0724 32.8396 40.3593C32.2658 40.8039 31.555 40.9865 30.8386 40.8728C30.4113 40.8051 30.0051 40.631 29.6644 40.3692C29.1746 39.9929 28.5523 39.7555 27.864 39.6826C27.8338 39.6793 27.8036 39.6754 27.7738 39.6707Z" fill="white"/>
<path d="M10.1863 34.8455C10.3453 34.8455 10.5062 34.8024 10.6511 34.7119C11.0628 34.4548 11.188 33.9126 10.9308 33.5009C10.5238 32.8493 10.3659 32.0721 10.4864 31.3122C10.5649 30.8165 10.7527 30.3591 11.0445 29.9527C11.2411 29.6788 11.2637 29.3164 11.1027 29.0202C10.702 28.2832 10.5597 27.4552 10.691 26.626C10.9425 25.038 12.1749 23.7798 13.7574 23.4957C14.1181 23.4308 14.4006 23.149 14.4666 22.7887C14.7641 21.1614 16.3353 20.0483 17.9694 20.3068C18.315 20.3615 18.6459 20.4736 18.953 20.64C19.3281 20.8433 19.7951 20.7477 20.0602 20.4136C21.0275 19.1948 22.5815 18.5886 24.1162 18.8315C24.5957 18.9077 25.046 18.5803 25.1218 18.101C25.1977 17.6216 24.8706 17.1713 24.3913 17.0954C22.4608 16.7897 20.5091 17.4382 19.1445 18.8034C18.8536 18.6973 18.5528 18.6194 18.2446 18.5707C15.8728 18.195 13.5849 19.6581 12.8798 21.8985C10.8385 22.4918 9.29285 24.2181 8.95499 26.3512C8.79058 27.3897 8.91913 28.427 9.3266 29.3809C9.03702 29.8923 8.84378 30.4474 8.75038 31.0372C8.5637 32.2157 8.80874 33.4213 9.44015 34.4323C9.6068 34.699 9.89321 34.8455 10.1863 34.8455Z" fill="white"/>
<path d="M31.3477 16.5549C33.0601 16.5549 34.4532 15.1618 34.4532 13.4494C34.4532 11.737 33.0601 10.3439 31.3477 10.3439C29.6353 10.3439 28.2422 11.737 28.2422 13.4494C28.2422 15.1618 29.6353 16.5549 31.3477 16.5549ZM31.3477 12.1017C32.0908 12.1017 32.6954 12.7063 32.6954 13.4494C32.6954 14.1925 32.0908 14.7971 31.3477 14.7971C30.6046 14.7971 30 14.1925 30 13.4494C30 12.7063 30.6046 12.1017 31.3477 12.1017Z" fill="white"/>
<path d="M41.7189 23.762C41.7189 21.7266 40.0629 20.0706 38.0275 20.0706C35.992 20.0706 34.336 21.7266 34.336 23.762C34.336 25.7975 35.992 27.4535 38.0275 27.4535C40.0629 27.4535 41.7189 25.7975 41.7189 23.762ZM38.0275 25.6956C36.9613 25.6956 36.0939 24.8282 36.0939 23.762C36.0939 22.6958 36.9613 21.8284 38.0275 21.8284C39.0937 21.8284 39.9611 22.6958 39.9611 23.762C39.9611 24.8282 39.0937 25.6956 38.0275 25.6956Z" fill="white"/>
<path d="M54.7855 13.215C52.7501 13.215 51.0941 14.871 51.0941 16.9065C51.0941 18.9419 52.7501 20.5979 54.7855 20.5979C56.821 20.5979 58.477 18.9419 58.477 16.9065C58.477 14.871 56.821 13.215 54.7855 13.215ZM54.7855 18.8401C53.7193 18.8401 52.8519 17.9727 52.8519 16.9065C52.8519 15.8403 53.7193 14.9728 54.7855 14.9728C55.8517 14.9728 56.7191 15.8403 56.7191 16.9065C56.7191 17.9727 55.8517 18.8401 54.7855 18.8401Z" fill="white"/>
<path d="M36.0939 15.1486C36.0939 16.9579 37.5659 18.4299 39.3752 18.4299C41.1844 18.4299 42.6564 16.9579 42.6564 15.1486C42.6564 13.3393 41.1844 11.8673 39.3752 11.8673C37.5659 11.8673 36.0939 13.3392 36.0939 15.1486ZM40.8986 15.1486C40.8986 15.9886 40.2152 16.6721 39.3752 16.6721C38.5351 16.6721 37.8517 15.9886 37.8517 15.1486C37.8517 14.3086 38.5351 13.6252 39.3752 13.6252C40.2152 13.6252 40.8986 14.3085 40.8986 15.1486Z" fill="white"/>
<path d="M49.6878 20.8909C49.6878 19.0816 48.2158 17.6096 46.4065 17.6096C44.5972 17.6096 43.1252 19.0816 43.1252 20.8909C43.1252 22.7002 44.5972 24.1722 46.4065 24.1722C48.2158 24.1722 49.6878 22.7002 49.6878 20.8909ZM46.4065 22.4143C45.5665 22.4143 44.883 21.7309 44.883 20.8909C44.883 20.0509 45.5665 19.3674 46.4065 19.3674C47.2465 19.3674 47.93 20.0509 47.93 20.8909C47.93 21.7309 47.2466 22.4143 46.4065 22.4143Z" fill="white"/>
<path d="M36.6798 10.4611C38.7476 10.4611 40.4299 8.77882 40.4299 6.71102C40.4299 4.64322 38.7476 2.96097 36.6798 2.96097C34.612 2.96097 32.9298 4.64322 32.9298 6.71102C32.9298 8.77882 34.612 10.4611 36.6798 10.4611ZM36.6798 4.71881C37.7783 4.71881 38.672 5.61249 38.672 6.71102C38.672 7.80955 37.7783 8.70323 36.6798 8.70323C35.5813 8.70323 34.6876 7.80955 34.6876 6.71102C34.6876 5.61249 35.5813 4.71881 36.6798 4.71881Z" fill="white"/>
<path d="M56.4848 0.5C54.5462 0.5 52.9691 2.07713 52.9691 4.01567C52.9691 5.95421 54.5462 7.53134 56.4848 7.53134C58.4233 7.53134 60.0004 5.95421 60.0004 4.01567C60.0004 2.07713 58.4233 0.5 56.4848 0.5ZM56.4848 5.77351C55.5155 5.77351 54.7269 4.98494 54.7269 4.01567C54.7269 3.0464 55.5155 2.25784 56.4848 2.25784C57.454 2.25784 58.2426 3.0464 58.2426 4.01567C58.2426 4.98494 57.454 5.77351 56.4848 5.77351Z" fill="white"/>
<path d="M49.2776 26.1644C47.8237 26.1644 46.6409 27.3472 46.6409 28.8012C46.6409 30.2551 47.8237 31.4379 49.2776 31.4379C50.7316 31.4379 51.9144 30.2551 51.9144 28.8012C51.9144 27.3472 50.7316 26.1644 49.2776 26.1644ZM49.2776 29.6801C48.7929 29.6801 48.3987 29.2858 48.3987 28.8012C48.3987 28.3165 48.7929 27.9222 49.2776 27.9222C49.7623 27.9222 50.1565 28.3165 50.1565 28.8012C50.1565 29.2858 49.7623 29.6801 49.2776 29.6801Z" fill="white"/>
<path d="M26.3086 9.75793C27.7625 9.75793 28.9453 8.57514 28.9453 7.12118C28.9453 5.66722 27.7625 4.48443 26.3086 4.48443C24.8546 4.48443 23.6718 5.66722 23.6718 7.12118C23.6718 8.57514 24.8546 9.75793 26.3086 9.75793ZM26.3086 6.24226C26.7933 6.24226 27.1875 6.63649 27.1875 7.12118C27.1875 7.60587 26.7933 8.0001 26.3086 8.0001C25.8239 8.0001 25.4297 7.60587 25.4297 7.12118C25.4297 6.63649 25.8239 6.24226 26.3086 6.24226Z" fill="white"/>
<path d="M47.3408 14.9057C48.3848 14.9057 49.3661 14.4992 50.1042 13.761C51.6279 12.2373 51.6279 9.75805 50.1042 8.23436C48.5806 6.71078 46.1013 6.71067 44.5775 8.23436C43.0538 9.75805 43.0538 12.2373 44.5775 13.761C45.3157 14.4992 46.297 14.9057 47.3408 14.9057ZM45.8206 9.47738C46.2397 9.0582 46.7903 8.84866 47.3408 8.84866C47.8915 8.84866 48.4421 9.05832 48.8613 9.47738C49.6995 10.3158 49.6995 11.6797 48.8613 12.5181C48.4552 12.9241 47.9152 13.1479 47.3408 13.1479C46.7666 13.1479 46.2266 12.9241 45.8206 12.5181C44.9823 11.6797 44.9823 10.3158 45.8206 9.47738Z" fill="white"/>
<path d="M31.2891 21.0081C31.2891 19.5219 30.08 18.3127 28.5938 18.3127C27.1076 18.3127 25.8984 19.5219 25.8984 21.0081C25.8984 22.4943 27.1076 23.7034 28.5938 23.7034C30.08 23.7034 31.2891 22.4943 31.2891 21.0081ZM27.6563 21.0081C27.6563 20.4912 28.0768 20.0706 28.5938 20.0706C29.1107 20.0706 29.5313 20.4912 29.5313 21.0081C29.5313 21.525 29.1107 21.9456 28.5938 21.9456C28.0768 21.9456 27.6563 21.525 27.6563 21.0081Z" fill="white"/>
</svg>
