<svg width="116" height="115" viewBox="0 0 116 115" fill="none" xmlns="http://www.w3.org/2000/svg">
<path d="M29.2502 36.4167C27.7252 36.4167 26.2627 37.0225 25.1844 38.1008C24.5632 38.722 24.0988 39.4706 23.8167 40.2852C23.4704 41.2855 24.3583 42.1667 25.4169 42.1667H25.8282C26.6596 42.1667 27.3071 41.3992 27.8949 40.8114V40.8114C28.2544 40.4519 28.7419 40.25 29.2502 40.25C29.7586 40.25 30.2461 40.4519 30.6055 40.8114V40.8114C31.1934 41.3992 31.8408 42.1667 32.6722 42.1667H33.0836C34.1421 42.1667 35.0301 41.2855 34.6837 40.2852C34.4016 39.4706 33.9372 38.722 33.3161 38.1008C32.2378 37.0225 30.7752 36.4167 29.2502 36.4167Z" fill="black"/>
<path d="M52.2502 40.25C52.7586 40.25 53.2461 40.4519 53.6055 40.8114V40.8114C54.1934 41.3992 54.8408 42.1667 55.6722 42.1667H56.0836C57.1421 42.1667 58.0301 41.2855 57.6837 40.2852C57.4016 39.4706 56.9372 38.722 56.3161 38.1008C55.2378 37.0225 53.7752 36.4167 52.2502 36.4167C50.7252 36.4167 49.2627 37.0225 48.1844 38.1008C47.5632 38.722 47.0988 39.4706 46.8167 40.2852C46.4704 41.2855 47.3583 42.1667 48.4169 42.1667H48.8282C49.6596 42.1667 50.3071 41.3992 50.8949 40.8114V40.8114C51.2544 40.4519 51.7419 40.25 52.2502 40.25Z" fill="black"/>
<path d="M46.1837 55.5481C46.5301 54.5478 45.6421 53.6667 44.5836 53.6667H44.1722C43.3408 53.6667 42.6934 54.4341 42.1055 55.022V55.022C41.7461 55.3814 41.2586 55.5833 40.7502 55.5833C40.2419 55.5833 39.7544 55.3814 39.3949 55.022V55.022C38.8071 54.4341 38.1596 53.6667 37.3282 53.6667H36.9169C35.8583 53.6667 34.9704 54.5478 35.3167 55.5481C35.5988 56.3627 36.0632 57.1114 36.6844 57.7325C37.7627 58.8109 39.2252 59.4167 40.7502 59.4167C42.2752 59.4167 43.7378 58.8109 44.8161 57.7325C45.4372 57.1114 45.9016 56.3627 46.1837 55.5481Z" fill="black"/>
<path d="M109.75 69H76.0936C76.7907 67.8425 77.1616 66.5179 77.1669 65.1667C77.17 64.8265 77.1443 64.4867 77.0902 64.1508C78.2756 63.4913 79.2631 62.5269 79.9506 61.3576C80.6381 60.1883 81.0006 58.8565 81.0006 57.5C81.0006 56.1435 80.6381 54.8117 79.9506 53.6424C79.2631 52.4731 78.2756 51.5087 77.0902 50.8492C77.1443 50.5133 77.17 50.1735 77.1669 49.8333C77.1525 48.2887 76.6755 46.7838 75.7974 45.5129C74.9194 44.242 73.6807 43.2634 72.2411 42.7033C72.9452 41.3534 73.3196 39.8558 73.3336 38.3333V32.5833C73.3336 23.9417 69.9007 15.654 63.7901 9.54344C57.6796 3.43288 49.3919 0 40.7502 0C32.1086 0 23.8209 3.43288 17.7103 9.54344C11.5998 15.654 8.16689 23.9417 8.16689 32.5833V38.3333C8.17855 39.85 8.55316 41.3419 9.25939 42.6842C7.81283 43.2396 6.56818 44.2197 5.68902 45.4957C4.80986 46.7717 4.33734 48.2838 4.33356 49.8333C4.33048 50.1735 4.35612 50.5133 4.41022 50.8492C3.22489 51.5087 2.23737 52.4731 1.54985 53.6424C0.862335 54.8117 0.499817 56.1435 0.499817 57.5C0.499817 58.8565 0.862335 60.1883 1.54985 61.3576C2.23737 62.5269 3.22489 63.4913 4.41022 64.1508C4.35612 64.4867 4.33048 64.8265 4.33356 65.1667C4.33446 66.6107 4.74314 68.025 5.51255 69.247C6.28197 70.4689 7.38083 71.4487 8.68262 72.0736C9.98441 72.6984 11.4362 72.9429 12.8709 72.7789C14.3055 72.615 15.6647 72.0492 16.7919 71.1467C17.8521 72.0002 19.1212 72.5548 20.4678 72.7528C21.8144 72.9508 23.1895 72.7852 24.4505 72.2729C25.7116 71.7607 26.8127 70.9206 27.6397 69.8396C28.4668 68.7586 28.9898 67.4761 29.1544 66.125C29.8061 66.47 30.4769 66.7958 31.1669 67.0833V73.2742L6.65272 79.81C5.43712 80.1478 4.36528 80.8737 3.60056 81.8772C2.83584 82.8807 2.42016 84.1067 2.41689 85.3683V113.083C2.41689 113.592 2.61882 114.079 2.97827 114.439C3.33771 114.798 3.82523 115 4.33356 115H113.584C114.092 115 114.579 114.798 114.939 114.439C115.298 114.079 115.5 113.592 115.5 113.083V74.75C115.496 73.2264 114.888 71.7665 113.811 70.6892C112.734 69.6118 111.274 69.0045 109.75 69ZM40.7502 3.83333C48.0301 3.84618 55.0345 6.61806 60.3518 11.5903C65.6691 16.5626 68.9039 23.3656 69.4044 30.6283C68.2908 29.8099 67.0173 29.2352 65.6669 28.9417V28.75C65.6669 28.2417 65.465 27.7542 65.1055 27.3947C64.7461 27.0353 64.2586 26.8333 63.7502 26.8333H57.8469C54.3484 26.8379 50.8724 26.2747 47.5544 25.1658L41.3636 23.0958C40.9657 22.9615 40.5347 22.9615 40.1369 23.0958L33.9461 25.1658C30.628 26.2747 27.152 26.8379 23.6536 26.8333H17.7502C17.2419 26.8333 16.7544 27.0353 16.3949 27.3947C16.0355 27.7542 15.8336 28.2417 15.8336 28.75V28.9417C14.4831 29.2352 13.2096 29.8099 12.0961 30.6283C12.5965 23.3656 15.8313 16.5626 21.1486 11.5903C26.4659 6.61806 33.4703 3.84618 40.7502 3.83333ZM69.5002 38.3333C69.4946 39.5168 69.1233 40.6695 68.437 41.6337C67.7508 42.5979 66.7832 43.3263 65.6669 43.7192V32.9283C66.4668 33.2147 67.198 33.6652 67.8136 34.2508C68.8916 35.3364 69.4977 36.8035 69.5002 38.3333ZM13.6677 34.27C14.2842 33.6714 15.0231 33.2137 15.8336 32.9283V43.7383C14.92 43.4151 14.103 42.8662 13.4584 42.1427C12.8138 41.4192 12.3625 40.5445 12.1464 39.5999C11.9304 38.6552 11.9565 37.6713 12.2225 36.7395C12.4884 35.8077 12.9856 34.9582 13.6677 34.27ZM21.5836 69C20.9496 68.9964 20.3262 68.8372 19.7682 68.5364C19.2101 68.2356 18.7344 67.8025 18.3827 67.275C18.1993 67.0254 17.9597 66.8225 17.6834 66.6826C17.407 66.5427 17.1016 66.4698 16.7919 66.4698C16.4822 66.4698 16.1768 66.5427 15.9004 66.6826C15.624 66.8225 15.3845 67.0254 15.2011 67.275C14.6736 68.059 13.8752 68.6205 12.959 68.8518C12.0429 69.0832 11.0736 68.968 10.2372 68.5284C9.40079 68.0888 8.75621 67.3558 8.42717 66.47C8.09813 65.5843 8.10783 64.6082 8.45439 63.7292C8.55107 63.4762 8.59418 63.2058 8.58099 62.9353C8.56779 62.6648 8.49857 62.3999 8.37772 62.1575C8.25864 61.9152 8.08939 61.7011 7.88121 61.5293C7.67302 61.3574 7.43066 61.2318 7.17022 61.1608C6.35784 60.9522 5.63795 60.4792 5.1239 59.8164C4.60985 59.1537 4.33087 58.3388 4.33087 57.5C4.33087 56.6612 4.60985 55.8463 5.1239 55.1836C5.63795 54.5208 6.35784 54.0478 7.17022 53.8392C7.43066 53.7682 7.67302 53.6426 7.88121 53.4708C8.08939 53.2989 8.25864 53.0848 8.37772 52.8425C8.49857 52.6001 8.56779 52.3352 8.58099 52.0647C8.59418 51.7942 8.55107 51.5238 8.45439 51.2708C8.26725 50.8145 8.16964 50.3265 8.16689 49.8333C8.16318 49.3216 8.26314 48.8145 8.46076 48.3425C8.65838 47.8705 8.94955 47.4434 9.31672 47.0869C9.68389 46.7305 10.1194 46.4521 10.5971 46.2686C11.0748 46.0851 11.5847 46.0003 12.0961 46.0192C13.294 46.8967 14.6777 47.4869 16.1402 47.7442C17.0357 53.831 20.1566 59.3695 24.8994 63.2883C25.2327 63.8586 25.4111 64.5062 25.4169 65.1667C25.4139 66.1824 25.009 67.1557 24.2908 67.8739C23.5725 68.5921 22.5993 68.997 21.5836 69ZM29.2502 77.7592L33.5819 76.6092C33.9903 76.4992 34.3509 76.2572 34.6074 75.9209C34.864 75.5847 35.0021 75.173 35.0002 74.75V68.31C38.7784 69.23 42.7221 69.23 46.5002 68.31V74.75C46.4984 75.173 46.6365 75.5847 46.893 75.9209C47.1496 76.2572 47.5101 76.4992 47.9186 76.6092L52.2502 77.7592V88.1667H29.2502V77.7592ZM10.0836 111.167H6.25022V85.3683C6.25094 84.946 6.39002 84.5356 6.64617 84.1998C6.90233 83.864 7.26144 83.6214 7.66856 83.5092L10.0836 82.8575V111.167ZM31.1669 105.417V109.25C31.1721 109.904 31.2887 110.552 31.5119 111.167H13.9169V81.8417L25.4169 78.775V90.0833C25.4169 90.5917 25.6188 91.0792 25.9783 91.4386C26.3377 91.7981 26.8252 92 27.3336 92H38.8336V103.5H33.0836C32.5752 103.5 32.0877 103.702 31.7283 104.061C31.3688 104.421 31.1669 104.908 31.1669 105.417ZM54.1669 111.167H36.9169C36.4086 111.167 35.921 110.965 35.5616 110.605C35.2022 110.246 35.0002 109.758 35.0002 109.25V107.333H54.1669V111.167ZM54.1669 103.5H42.6669V92H54.1669V103.5ZM54.2052 74.3092L50.3336 73.2742V67.0833C51.0236 66.7958 51.6944 66.47 52.3461 66.125C52.4755 67.1451 52.8086 68.1289 53.3255 69.0178C53.8424 69.9068 54.5327 70.6829 55.3552 71.3C54.6894 72.171 54.29 73.2161 54.2052 74.3092ZM40.7502 65.1667C35.1597 65.1631 29.7991 62.9407 25.846 58.9876C21.8929 55.0345 19.6704 49.6739 19.6669 44.0833V30.6667H23.6536C27.5696 30.6682 31.46 30.0338 35.1727 28.7883L40.7502 26.9292L46.3277 28.7883C50.0405 30.0338 53.9308 30.6682 57.8469 30.6667H61.8336V44.0833C61.83 49.6739 59.6076 55.0345 55.6545 58.9876C51.7013 62.9407 46.3408 65.1631 40.7502 65.1667ZM56.0836 65.1667C56.0894 64.5062 56.2678 63.8586 56.6011 63.2883C61.3438 59.3695 64.4648 53.831 65.3602 47.7442C66.8312 47.4956 68.223 46.9047 69.4236 46.0192C69.9331 46.004 70.4404 46.0915 70.9154 46.2766C71.3903 46.4617 71.8231 46.7405 72.188 47.0965C72.5529 47.4524 72.8424 47.8782 73.0392 48.3484C73.236 48.8186 73.3361 49.3236 73.3336 49.8333C73.3308 50.3265 73.2332 50.8145 73.0461 51.2708C72.9494 51.5238 72.9063 51.7942 72.9195 52.0647C72.9327 52.3352 73.0019 52.6001 73.1227 52.8425C73.2418 53.0848 73.4111 53.2989 73.6192 53.4708C73.8274 53.6426 74.0698 53.7682 74.3302 53.8392C75.1426 54.0478 75.8625 54.5208 76.3765 55.1836C76.8906 55.8463 77.1696 56.6612 77.1696 57.5C77.1696 58.3388 76.8906 59.1537 76.3765 59.8164C75.8625 60.4792 75.1426 60.9522 74.3302 61.1608C74.0698 61.2318 73.8274 61.3574 73.6192 61.5293C73.4111 61.7011 73.2418 61.9152 73.1227 62.1575C73.0019 62.3999 72.9327 62.6648 72.9195 62.9353C72.9063 63.2058 72.9494 63.4762 73.0461 63.7292C73.3926 64.6082 73.4023 65.5843 73.0733 66.47C72.7442 67.3558 72.0997 68.0888 71.2632 68.5284C70.4268 68.968 69.4575 69.0832 68.5414 68.8518C67.6253 68.6205 66.8269 68.059 66.2994 67.275C66.116 67.0254 65.8764 66.8225 65.6 66.6826C65.3237 66.5427 65.0183 66.4698 64.7086 66.4698C64.3988 66.4698 64.0934 66.5427 63.8171 66.6826C63.5407 66.8225 63.3011 67.0254 63.1177 67.275C62.6641 67.9634 62.0006 68.4872 61.2258 68.7687C60.4509 69.0501 59.606 69.0743 58.8163 68.8376C58.0266 68.601 57.3343 68.116 56.842 67.4547C56.3497 66.7934 56.0838 65.9911 56.0836 65.1667ZM111.667 111.167H58.0002V74.75C58.0002 74.2417 58.2022 73.7542 58.5616 73.3947C58.921 73.0353 59.4086 72.8333 59.9169 72.8333H109.75C110.259 72.8333 110.746 73.0353 111.106 73.3947C111.465 73.7542 111.667 74.2417 111.667 74.75V111.167Z" fill="black"/>
<path d="M84.8336 95.8333C86.9506 95.8333 88.6669 94.1171 88.6669 92C88.6669 89.8829 86.9506 88.1667 84.8336 88.1667C82.7165 88.1667 81.0002 89.8829 81.0002 92C81.0002 94.1171 82.7165 95.8333 84.8336 95.8333Z" fill="black"/>
<path d="M63.7502 105.417C63.7502 104.358 64.6083 103.5 65.6669 103.5V103.5C66.7254 103.5 67.5836 104.358 67.5836 105.417V105.417C67.5836 106.475 66.7254 107.333 65.6669 107.333V107.333C64.6083 107.333 63.7502 106.475 63.7502 105.417V105.417Z" fill="black"/>
<path d="M71.4169 105.417C71.4169 104.358 72.275 103.5 73.3336 103.5V103.5C74.3921 103.5 75.2502 104.358 75.2502 105.417V105.417C75.2502 106.475 74.3921 107.333 73.3336 107.333V107.333C72.275 107.333 71.4169 106.475 71.4169 105.417V105.417Z" fill="black"/>
<path d="M79.0836 105.417C79.0836 104.358 79.9417 103.5 81.0002 103.5V103.5C82.0588 103.5 82.9169 104.358 82.9169 105.417V105.417C82.9169 106.475 82.0588 107.333 81.0002 107.333V107.333C79.9417 107.333 79.0836 106.475 79.0836 105.417V105.417Z" fill="black"/>
<path d="M86.7502 105.417C86.7502 104.358 87.6083 103.5 88.6669 103.5V103.5C89.7254 103.5 90.5836 104.358 90.5836 105.417V105.417C90.5836 106.475 89.7254 107.333 88.6669 107.333V107.333C87.6083 107.333 86.7502 106.475 86.7502 105.417V105.417Z" fill="black"/>
<path d="M94.4169 105.417C94.4169 104.358 95.275 103.5 96.3336 103.5V103.5C97.3921 103.5 98.2502 104.358 98.2502 105.417V105.417C98.2502 106.475 97.3921 107.333 96.3336 107.333V107.333C95.275 107.333 94.4169 106.475 94.4169 105.417V105.417Z" fill="black"/>
<path d="M102.084 105.417C102.084 104.358 102.942 103.5 104 103.5V103.5C105.059 103.5 105.917 104.358 105.917 105.417V105.417C105.917 106.475 105.059 107.333 104 107.333V107.333C102.942 107.333 102.084 106.475 102.084 105.417V105.417Z" fill="black"/>
</svg>
