<svg width="62" height="61" viewBox="0 0 62 61" fill="none" xmlns="http://www.w3.org/2000/svg">
<path d="M34.1211 20.3603C33.5769 20.2661 33.2145 19.7487 33.2851 19.201C33.5169 17.404 33.4779 16.008 33.4027 15.1444C33.3547 14.5939 33.7062 14.0565 34.245 13.9337C34.7844 13.8108 35.3119 14.1492 35.3705 14.6993C35.4749 15.6802 35.5488 17.3511 35.2579 19.5412C35.1851 20.0886 34.6653 20.4545 34.1211 20.3603ZM21.014 2.75289C20.7299 2.27768 20.1076 2.14473 19.643 2.4458C19.1807 2.74533 19.0493 3.3614 19.3308 3.83484C19.5684 4.2343 19.7962 4.63946 20.0142 5.04997C20.2734 5.5384 20.8716 5.74555 21.3683 5.50246C21.8637 5.26 22.0706 4.66135 21.8131 4.17363C21.5593 3.69308 21.2929 3.21933 21.014 2.75289ZM23.9967 60.5H45.9954C46.2606 60.5 46.515 60.3946 46.7025 60.2071C46.89 60.0196 46.9954 59.7653 46.9954 59.5001V55.0903C46.9956 54.4866 47.0197 53.8833 47.0678 53.2818C47.1118 52.7314 46.7252 52.232 46.1773 52.1638C45.6292 52.0956 45.1275 52.4845 45.0815 53.0349C45.0244 53.7184 44.9957 54.4041 44.9955 55.0903V58.5001H24.9966V56.5002H30.9963C31.5485 56.5002 31.9962 56.0525 31.9962 55.5003C31.9962 54.948 31.5485 54.5003 30.9963 54.5003H18.997C17.6714 54.4989 16.4006 53.9716 15.4633 53.0343C14.526 52.097 13.9988 50.8262 13.9973 49.5006V49.4381C15.8255 49.22 17.5267 48.3913 18.8255 47.0861L18.997 46.9147C19.3875 46.5241 19.3875 45.891 18.997 45.5005C18.6065 45.11 17.9733 45.11 17.5828 45.5005L17.4112 45.6721C16.4868 46.6013 15.2915 47.2133 13.9973 47.4201V45.5009C13.9973 45.2357 13.8919 44.9813 13.7044 44.7938C13.5169 44.6063 13.2625 44.5009 12.9973 44.5009H9.99749C9.46709 44.5009 8.95841 44.2902 8.58336 43.9152C8.20831 43.5401 7.99761 43.0314 7.99761 42.501C7.99761 41.9706 8.20831 41.4619 8.58336 41.0869C8.95841 40.7118 9.46709 40.5011 9.99749 40.5011H12.9973C13.2625 40.5011 13.5169 40.3958 13.7044 40.2083C13.8919 40.0207 13.9973 39.7664 13.9973 39.5012V35.8764C13.9973 35.3242 13.5496 34.8765 12.9973 34.8765C12.4451 34.8765 11.9974 35.3242 11.9974 35.8764V38.5013H9.99749C8.93669 38.5013 7.91933 38.9227 7.16923 39.6728C6.41913 40.4229 5.99772 41.4402 5.99772 42.501C5.99772 43.5618 6.41913 44.5792 7.16923 45.3293C7.91933 46.0794 8.93669 46.5008 9.99749 46.5008H11.9974V49.5006C11.9995 51.3564 12.7376 53.1356 14.0498 54.4478C15.362 55.76 17.1412 56.4981 18.997 56.5002H22.9967V59.5001C22.9967 59.7653 23.1021 60.0196 23.2896 60.2071C23.4772 60.3946 23.7315 60.5 23.9967 60.5ZM43.9955 17.5025C43.605 17.112 42.9756 17.115 42.6201 17.5376C41.275 19.1371 38.3616 23.1781 38.0275 28.5018H35.0509C39.5126 22.2948 39.7315 15.8454 39.6267 13.4119C39.6029 12.859 39.1053 12.4731 38.5565 12.5444C38.0092 12.6156 37.614 13.1167 37.63 13.6684C37.6569 14.6021 37.6261 16.129 37.3099 17.9752C36.6542 21.8386 35.007 25.4657 32.5296 28.5018H29.0839C32.7473 23.1648 31.7611 16.6942 31.2043 14.2706C31.0806 13.7321 30.523 13.438 29.9959 13.6034C29.4689 13.7687 29.1664 14.3297 29.2821 14.8698C29.7131 16.8826 30.388 21.687 28.2738 25.9381C27.9683 24.7662 27.6081 23.6266 27.2061 22.5237C27.6173 18.5167 26.9772 14.8473 25.347 11.8316C25.0843 11.3458 24.4637 11.2078 23.9968 11.5026C23.5298 11.7976 23.394 12.4137 23.6512 12.9024C24.43 14.3818 24.9399 16.0473 25.1753 17.8501C23.4566 14.4846 21.3839 11.313 18.9931 8.38904C18.6435 7.9616 18.0119 7.91079 17.591 8.26816C17.17 8.62564 17.1168 9.25329 17.465 9.68201C20.1558 12.9948 25.1772 20.08 26.8072 28.5018H24.7314C22.758 22.4064 19.4083 17.8241 16.8986 15.017C16.6555 14.7451 16.2374 14.7297 15.9699 14.9776L15.4447 15.4645C15.1922 15.6986 15.1774 16.093 15.4072 16.3495C17.7017 18.9158 20.7351 23.0435 22.6218 28.5018H20.7219C18.4799 22.1081 12.4456 17.3957 8.46414 14.8661C7.99799 14.57 7.38396 14.7234 7.09837 15.1961C6.81286 15.6686 6.96334 16.2811 7.42913 16.5775C11.0291 18.8686 16.3685 23.0122 18.5845 28.5018H16.5419C16.0999 27.8354 15.6219 27.1938 15.1101 26.5801C14.7563 26.1559 14.1219 26.1292 13.7143 26.502C13.3068 26.8747 13.2808 27.5057 13.6327 27.9314C13.8 28.1338 13.9632 28.3394 14.1223 28.5482V30.5017H49.9952V33.9115C49.9947 37.4323 49.1749 40.9046 47.6008 44.0538C46.7929 45.6702 46.1653 47.3694 45.7287 49.1208C45.5951 49.6567 45.9449 50.1864 46.4857 50.2982C47.0265 50.41 47.5533 50.0616 47.6889 49.5262C48.0894 47.9445 48.6595 46.4095 49.3897 44.9481C51.1026 41.5212 51.9946 37.7427 51.9951 33.9115V29.5018C51.9949 29.2778 51.9195 29.0604 51.781 28.8844C51.6425 28.7084 51.4489 28.584 51.2313 28.5311C51.9872 27.5476 52.8938 26.1905 53.4487 24.7444C53.6465 24.2286 53.3214 23.6813 52.7864 23.5438C52.2514 23.4062 51.7084 23.7307 51.4972 24.2411C50.7062 26.1522 49.1581 27.9443 48.6513 28.5018H46.4672C48.4566 26.1017 49.3947 23.1483 49.7705 21.6425C49.9044 21.1063 49.5399 20.5928 48.9949 20.5016C48.4502 20.4106 47.9276 20.7748 47.7874 21.309C47.3469 22.9867 46.1778 26.4425 43.6502 28.5018H40.0353C40.3661 23.99 42.841 20.441 44.0471 18.9596C44.396 18.531 44.3869 17.8927 43.9955 17.5025ZM44.0234 42.265C43.6567 42.9993 43.3219 43.7489 43.0198 44.5117C42.8165 45.0251 43.0898 45.5978 43.61 45.783C44.1302 45.9682 44.7003 45.6959 44.9049 45.183C45.179 44.4963 45.4816 43.8212 45.8121 43.1594C46.5843 41.6129 47.1592 39.977 47.5243 38.2901C47.641 37.7507 47.2709 37.2351 46.7265 37.1441C46.1815 37.053 45.6686 37.422 45.5489 37.9614C45.2183 39.4516 44.7063 40.897 44.0234 42.265ZM47.9953 33.9114C47.9953 33.685 47.8118 33.5015 47.5855 33.5015H46.4053C46.1789 33.5015 45.9954 33.685 45.9954 33.9114C45.9954 34.0803 45.993 34.2501 45.9883 34.4203C45.9728 34.9727 46.3797 35.4563 46.9305 35.5015C47.4805 35.5467 47.9656 35.1377 47.984 34.5862C47.9915 34.3607 47.9953 34.1354 47.9953 33.9114ZM11.673 4.61858L16.1933 5.52253C16.3707 5.55804 16.5352 5.64104 16.6692 5.76268C16.8031 5.88431 16.9016 6.04003 16.954 6.21322C17.0065 6.38641 17.0109 6.57059 16.967 6.74611C16.923 6.92164 16.8322 7.08194 16.7042 7.20993L14.1044 9.80978L14.9668 13.2603C15.0115 13.439 15.0059 13.6265 14.9508 13.8022C14.8957 13.978 14.7931 14.135 14.6543 14.2561C14.5156 14.3772 14.3461 14.4577 14.1645 14.4886C13.983 14.5195 13.7964 14.4997 13.6254 14.4313L8.99755 12.5797L4.36919 14.4311C4.1982 14.4995 4.01164 14.5194 3.83008 14.4885C3.64853 14.4576 3.47903 14.3771 3.34029 14.256C3.20155 14.1349 3.09895 13.9778 3.0438 13.8021C2.98866 13.6264 2.98311 13.4389 3.02777 13.2602L3.89022 9.80966L1.29037 7.2098C1.16244 7.08182 1.07164 6.92152 1.02765 6.74599C0.983657 6.57046 0.988121 6.38628 1.04057 6.21309C1.09301 6.0399 1.19147 5.88419 1.32545 5.76255C1.45943 5.64092 1.6239 5.55792 1.80134 5.5224L6.32271 4.61858L8.10385 1.05628C8.18691 0.890212 8.31457 0.75055 8.47253 0.652941C8.63048 0.555331 8.8125 0.503631 8.99818 0.503631C9.18386 0.503631 9.36587 0.555331 9.52383 0.652941C9.68178 0.75055 9.80944 0.890212 9.8925 1.05628L11.673 4.61858ZM13.9689 7.11718L10.8013 6.48372C10.652 6.45385 10.5115 6.39027 10.3905 6.29784C10.2695 6.20541 10.1712 6.08657 10.1031 5.95038L8.99755 3.73938L7.89199 5.95038C7.8239 6.08657 7.7256 6.20541 7.6046 6.29784C7.4836 6.39027 7.34309 6.45385 7.19378 6.48372L4.02621 7.11718L5.70487 8.79584C5.82693 8.91803 5.91527 9.06975 5.96127 9.23623C6.00727 9.4027 6.00936 9.57826 5.96735 9.74578L5.44176 11.8483L8.6262 10.5744C8.86459 10.479 9.13052 10.479 9.36891 10.5744L12.5528 11.8479L12.0279 9.74541C11.9859 9.57788 11.988 9.40233 12.034 9.23585C12.08 9.06938 12.1683 8.91765 12.2904 8.79546L13.9689 7.11718ZM56.8279 4.85481C56.394 4.55015 55.857 4.43003 55.3346 4.52081C54.8122 4.61158 54.3472 4.90584 54.0415 5.33904C53.8138 5.66249 53.6872 6.04619 53.6776 6.44161C53.668 6.83702 53.7759 7.2264 53.9876 7.56051C54.1993 7.89461 54.5054 8.15843 54.867 8.31861C55.2287 8.47879 55.6297 8.52813 56.0194 8.4604C56.4091 8.39266 56.7699 8.2109 57.0563 7.93808C57.3427 7.66526 57.5418 7.31365 57.6283 6.9277C57.7149 6.54176 57.6851 6.13881 57.5426 5.76982C57.4002 5.40083 57.1515 5.08236 56.8281 4.85469L56.8279 4.85481ZM60.0106 1.11015C60.7406 2.4554 61.0791 3.97827 60.9877 5.50609C60.8963 7.03392 60.3786 8.50556 59.4934 9.75416L57.8185 12.1334L59.6453 15.5276C59.7334 15.6911 59.7743 15.876 59.7632 16.0614C59.7522 16.2469 59.6897 16.4256 59.5828 16.5775L56.1295 21.4836C56.0059 21.6591 55.8292 21.7902 55.6255 21.8575C55.4217 21.9248 55.2017 21.9247 54.9979 21.8574C54.7942 21.79 54.6175 21.6589 54.494 21.4834C54.3705 21.3079 54.3068 21.0973 54.3122 20.8828L54.3899 17.8136L52.6038 16.5558L51.5805 19.2072C51.5258 19.349 51.4395 19.4765 51.3281 19.5799C51.2168 19.6834 51.0833 19.7601 50.9379 19.8042C50.7925 19.8483 50.6389 19.8587 50.4888 19.8346C50.3388 19.8105 50.1962 19.7524 50.0719 19.665L45.1659 16.2115C45.0415 16.1241 44.9387 16.0094 44.8653 15.8763C44.792 15.7431 44.7499 15.595 44.7424 15.4432C44.7348 15.2913 44.762 15.1397 44.8219 15C44.8817 14.8602 44.9726 14.736 45.0877 14.6366L47.2386 12.7787L45.4526 11.5216L42.5902 12.6302C42.3901 12.7078 42.1704 12.7188 41.9635 12.6618C41.7565 12.6048 41.5735 12.4827 41.4413 12.3136C41.3091 12.1445 41.2349 11.9374 41.2295 11.7228C41.2241 11.5083 41.2879 11.2977 41.4114 11.1222L44.8647 6.21611C44.9717 6.06428 45.1188 5.94521 45.2896 5.87223C45.4603 5.79925 45.648 5.77524 45.8317 5.80288L49.6418 6.3781L51.3167 3.99874C52.1935 2.74431 53.4041 1.7606 54.8113 1.15911C56.2186 0.557633 57.7663 0.362446 59.2788 0.595682C59.4324 0.618769 59.5785 0.677314 59.7055 0.766679C59.8325 0.856044 59.937 0.973771 60.0106 1.11053V1.11015ZM48.3548 8.2065L46.1439 7.87314L44.9471 9.57304L45.2295 9.4638C45.383 9.40436 45.5488 9.38374 45.7121 9.40375C45.8755 9.42377 46.0314 9.48381 46.166 9.57854L46.9837 10.1541L48.3548 8.2065ZM50.918 15.3686L48.9243 13.9652L47.3642 15.3127L50.1757 17.2917L50.918 15.3686ZM57.5914 15.9311L56.5323 13.9623L55.1613 15.9099L55.979 16.4849C56.1136 16.5797 56.2228 16.7062 56.2968 16.8533C56.3707 17.0003 56.4073 17.1634 56.4031 17.328L56.3955 17.6306L57.5914 15.9311ZM58.4735 2.51732C57.404 2.44075 56.333 2.64308 55.3651 3.10454C54.3973 3.566 53.5658 4.27077 52.952 5.14992L50.9221 8.03363V8.03463L48.6199 11.3054L53.5259 14.7587L57.858 8.60297C58.4782 7.72849 58.861 6.70805 58.9689 5.64137C59.0768 4.5747 58.9061 3.49829 58.4735 2.51732ZM46.3384 21.8737C46.6225 21.4002 46.469 20.7859 45.9954 20.5018C45.5219 20.2177 44.9076 20.3712 44.6235 20.8448L42.6526 24.1296C42.3685 24.6031 42.522 25.2174 42.9956 25.5015C43.4692 25.7856 44.0834 25.6321 44.3675 25.1585L46.3384 21.8737ZM40.3105 7.41954L38.8606 7.76952C38.6228 8.8731 38.0783 9.88713 37.2897 10.695C36.5012 11.5028 35.5006 12.0716 34.4031 12.336C33.3056 12.6004 32.1557 12.5496 31.0858 12.1894C30.0159 11.8292 29.0694 11.1744 28.3552 10.3001C28.3552 10.3001 26.2273 10.7835 25.9915 10.7835C25.3192 10.7817 24.667 10.5543 24.1393 10.1377C23.6117 9.72111 23.2391 9.13948 23.0814 8.48598C23.0258 8.25514 22.9974 8.01859 22.9967 7.78115C22.9956 7.10748 23.2218 6.45314 23.6388 5.92403C24.0558 5.39492 24.6391 5.02202 25.2944 4.86569L27.3942 4.35922C27.5038 4.07184 27.6351 3.79381 27.7869 3.52746C28.0605 3.0474 28.6994 2.98731 29.1268 3.3374C29.5538 3.68709 29.6028 4.31414 29.3699 4.81449C29.2089 5.16034 29.0975 5.52902 29.0405 5.9097C28.934 6.62171 29.0218 7.34928 29.2946 8.01551L36.9806 6.16399C36.8946 5.16606 36.4377 4.23658 35.7002 3.55892C34.9626 2.88126 33.9978 2.50463 32.9962 2.50332C32.7175 2.50247 32.4405 2.53105 32.1696 2.58802C31.6293 2.70166 31.0287 2.51308 30.7841 2.01804C30.5396 1.5231 30.7418 0.914678 31.2706 0.756106C32.0913 0.510016 32.959 0.441538 33.8153 0.560136C35.0035 0.724691 36.1149 1.24184 37.0061 2.04472L38.9042 1.5875C39.6776 1.40209 40.493 1.53107 41.1714 1.94615C41.8498 2.36122 42.3359 3.02848 42.5229 3.8015C42.5782 4.03216 42.6064 4.2685 42.6069 4.50571C42.6079 5.17898 42.3818 5.83291 41.9651 6.3617C41.5483 6.8905 40.9654 7.26321 40.3105 7.41954ZM27.3363 8.48785C27.1125 7.85316 26.9976 7.1852 26.9965 6.51222L25.7632 6.80958C25.5447 6.8616 25.3502 6.98582 25.2111 7.16214C25.072 7.33846 24.9964 7.55655 24.9966 7.78115C24.997 7.86155 25.0068 7.94163 25.0258 8.01976C25.0885 8.2768 25.2506 8.49845 25.4766 8.6361C25.7026 8.77374 25.9739 8.81613 26.2311 8.75397L27.3363 8.48785ZM36.5558 8.32411L30.6579 9.74466C31.1249 10.0824 31.6595 10.315 32.2249 10.4266C32.7903 10.5382 33.3731 10.5261 33.9334 10.3912C34.4937 10.2562 35.0181 10.0016 35.4707 9.64478C35.9233 9.28797 36.2932 8.83743 36.5552 8.32411H36.5558ZM40.607 4.50508C40.6066 4.42473 40.5969 4.34469 40.578 4.2666C40.5153 4.00942 40.3532 3.78759 40.1273 3.64973C39.9013 3.51186 39.6299 3.46922 39.3726 3.53114L38.3397 3.77988C38.6464 4.37884 38.8493 5.02547 38.9397 5.69227L39.8415 5.47503C40.0596 5.42305 40.2538 5.29903 40.3927 5.12302C40.5317 4.94701 40.6071 4.7293 40.607 4.50508ZM32.9962 3.50264V5.50315H34.9961V3.50327L32.9962 3.50264ZM1.29087 30.7946L3.99784 28.0877V24.5021C3.99784 24.3211 4.04697 24.1435 4.13998 23.9882C4.23299 23.8329 4.3664 23.7058 4.52598 23.6204C4.68556 23.535 4.86533 23.4946 5.04611 23.5033C5.22689 23.5121 5.40191 23.5697 5.5525 23.6701L7.99761 25.3001L10.4427 23.6701C10.5933 23.5697 10.7683 23.5121 10.9491 23.5033C11.1299 23.4946 11.3097 23.535 11.4692 23.6204C11.6288 23.7058 11.7622 23.8329 11.8552 23.9882C11.9483 24.1435 11.9974 24.3211 11.9974 24.5021V29.0877L14.7044 31.7945C14.8442 31.9344 14.9394 32.1125 14.978 32.3065C15.0166 32.5005 14.9968 32.7015 14.9211 32.8843C14.8454 33.067 14.7173 33.2232 14.5528 33.333C14.3884 33.4429 14.195 33.5016 13.9973 33.5015H9.61552L7.89199 36.9486C7.80894 37.1147 7.68129 37.2544 7.52333 37.352C7.36537 37.4496 7.18336 37.5013 6.99767 37.5013C6.98404 37.5013 6.97042 37.5013 6.95679 37.5004C6.76428 37.4927 6.5781 37.4295 6.42066 37.3184C6.26322 37.2073 6.14123 37.0531 6.06935 36.8744L4.62793 33.2879L1.72472 32.4641C1.55708 32.4165 1.40479 32.3259 1.28295 32.2013C1.1611 32.0767 1.07394 31.9224 1.0301 31.7538C0.986256 31.5851 0.987255 31.4079 1.033 31.2397C1.07874 31.0716 1.16763 30.9183 1.29087 30.7951V30.7946ZM3.90897 31.0048L5.64637 31.498C5.79318 31.5397 5.9285 31.6145 6.04196 31.7165C6.15542 31.8186 6.24402 31.9453 6.30096 32.0869L7.09716 34.0673L8.1036 32.0549C8.18655 31.8888 8.31412 31.749 8.47201 31.6513C8.6299 31.5536 8.81187 31.5018 8.99755 31.5017H11.5833L10.2904 30.2089C10.1975 30.116 10.1238 30.0058 10.0736 29.8844C10.0234 29.7631 9.99749 29.6331 9.99749 29.5018V26.3705L8.55233 27.3339C8.38806 27.4434 8.19504 27.5019 7.99761 27.5019C7.80018 27.5019 7.60716 27.4434 7.44289 27.3339L5.99772 26.3705V28.5018C5.99773 28.6331 5.97187 28.7632 5.92162 28.8845C5.87137 29.0058 5.79772 29.1161 5.70487 29.2089L3.90897 31.0048ZM1.99699 19.5037C1.87696 20.0423 2.21286 20.5836 2.73908 20.7499C3.61671 21.0273 5.0198 21.5373 6.62337 22.3699C7.1135 22.6244 7.72369 22.4597 7.9976 21.9801C8.27152 21.5005 8.10513 20.8878 7.61585 20.6316C5.7565 19.6581 4.14781 19.0871 3.17989 18.7907C2.65105 18.6287 2.11729 18.9638 1.99699 19.5037ZM45.5432 3.50311C46.0614 3.69456 46.641 3.42937 46.7599 2.88982C46.8547 2.45908 46.9211 1.99595 46.9587 1.50259C47.0007 0.951935 46.5477 0.503438 45.9954 0.503438C45.4432 0.503438 45.0024 0.952248 44.9512 1.50212C44.9275 1.75664 44.8956 1.986 44.8589 2.19156C44.7619 2.7351 45.0252 3.31178 45.5432 3.50311ZM60.4917 25.286C60.633 24.1905 59.8395 23.1581 58.7575 23.38C57.6771 23.6016 56.7963 24.0737 56.2123 24.4635C55.7561 24.7679 55.7361 25.3929 56.1152 25.7892C56.4979 26.1893 57.1518 26.2134 57.631 25.9361C58.3011 25.5484 59.3256 25.135 60.4912 25.2855C60.4915 25.2855 60.4917 25.2857 60.4917 25.286ZM58.9947 32.5016C58.9947 31.9494 58.547 31.5017 57.9947 31.5017C57.4425 31.5017 56.9948 31.9494 56.9948 32.5016V33.5015H55.9949C55.4426 33.5015 54.9949 33.9492 54.9949 34.5015C54.9949 35.0537 55.4426 35.5014 55.9949 35.5014H56.9948V36.5014C56.9948 37.0536 57.4425 37.5013 57.9947 37.5013C58.547 37.5013 58.9947 37.0536 58.9947 36.5014V35.5014H59.9946C60.5469 35.5014 60.9946 35.0537 60.9946 34.5015C60.9946 33.9492 60.5469 33.5015 59.9946 33.5015H58.9947V32.5016ZM5.99772 53.5004C6.54998 53.5004 6.99767 53.0527 6.99767 52.5005V51.5005H7.99761C8.54986 51.5005 8.99755 51.0528 8.99755 50.5006C8.99755 49.9483 8.54986 49.5006 7.99761 49.5006H6.99767V48.5007C6.99767 47.9484 6.54998 47.5007 5.99772 47.5007C5.44547 47.5007 4.99778 47.9484 4.99778 48.5007V49.5006H3.99784C3.44559 49.5006 2.9979 49.9483 2.9979 50.5006C2.9979 51.0528 3.44559 51.5005 3.99784 51.5005H4.99778V52.5005C4.99778 53.0527 5.44547 53.5004 5.99772 53.5004ZM53.995 43.501C54.5472 43.501 54.9949 43.0533 54.9949 42.501C54.9949 41.9488 54.5472 41.5011 53.995 41.5011C53.4427 41.5011 52.995 41.9488 52.995 42.501C52.995 43.0533 53.4427 43.501 53.995 43.501ZM56.9948 45.5009C56.4425 45.5009 55.9949 45.9485 55.9949 46.5008C55.9949 47.0531 56.4425 47.5007 56.9948 47.5007C57.5471 47.5007 57.9947 47.0531 57.9947 46.5008C57.9947 45.9485 57.5471 45.5009 56.9948 45.5009ZM0.998011 43.501C0.998011 44.0532 1.4457 44.5009 1.99795 44.5009C2.55021 44.5009 2.9979 44.0532 2.9979 43.501C2.9979 42.9487 2.55021 42.501 1.99795 42.501C1.4457 42.501 0.998011 42.9487 0.998011 43.501ZM36.9959 32.5016C36.4437 32.5016 35.996 32.9493 35.996 33.5015C35.996 34.0538 36.4437 34.5015 36.9959 34.5015C37.5482 34.5015 37.9959 34.0538 37.9959 33.5015C37.9959 32.9493 37.5482 32.5016 36.9959 32.5016ZM32.9962 38.5013C32.4439 38.5013 31.9962 38.949 31.9962 39.5012C31.9962 40.0535 32.4439 40.5011 32.9962 40.5011C33.5484 40.5011 33.9961 40.0535 33.9961 39.5012C33.9961 38.949 33.5484 38.5013 32.9962 38.5013ZM13.9973 0.503438C13.445 0.503438 12.9973 0.951127 12.9973 1.50338C12.9973 2.05563 13.445 2.50332 13.9973 2.50332C14.5495 2.50332 14.9972 2.05563 14.9972 1.50338C14.9972 0.951127 14.5495 0.503438 13.9973 0.503438ZM40.9957 15.5026C40.9957 16.0548 41.4434 16.5025 41.9957 16.5025C42.5479 16.5025 42.9956 16.0548 42.9956 15.5026C42.9956 14.9503 42.5479 14.5026 41.9957 14.5026C41.4434 14.5026 40.9957 14.9503 40.9957 15.5026Z" fill="white"/>
</svg>
