<svg width="130" height="115" viewBox="0 0 130 115" fill="none" xmlns="http://www.w3.org/2000/svg">
<path d="M64.7575 58.6204L52.4472 54.8873L51.108 52.2091C50.6907 51.3741 49.7363 50.9878 48.873 51.2553V50.7892C53.9708 47.1065 57.4304 41.2898 57.921 34.6576C60.3099 33.99 62.1898 32.0475 62.5834 29.6259C62.8318 28.0986 62.5074 26.5947 61.7649 25.3449C64.1413 24.1007 65.7677 21.6115 65.7677 18.7485C65.7677 16.152 64.3917 13.7861 62.2522 12.4532C62.3703 11.9679 62.4307 11.4678 62.4307 10.9619C62.4307 7.47173 59.5913 4.63229 56.1011 4.63229C55.2638 4.63229 54.4646 4.79724 53.7326 5.09379C50.1096 1.80238 45.4705 0 40.5276 0H31.6286C26.7075 0 22.0491 1.80539 18.4231 5.09354C17.6911 4.79699 16.8922 4.63229 16.0551 4.63229C12.5649 4.63229 9.72551 7.47173 9.72551 10.9619C9.72551 11.468 9.78593 11.9681 9.904 12.4532C7.7642 13.7861 6.38848 16.152 6.38848 18.7485C6.38848 21.61 8.01288 24.0977 10.3868 25.3426C9.64605 26.5882 9.32342 28.0915 9.57285 29.6259C9.96641 32.0475 11.8463 33.99 14.2352 34.6576C14.7248 41.2808 18.1759 47.0902 23.2622 50.7737V51.2482C22.4043 50.9935 21.462 51.3808 21.0479 52.2088L19.7098 54.8848L6.92268 58.721C3.27605 59.8152 0.826172 63.1081 0.826172 66.9151V113.119C0.826172 114.157 1.66795 114.999 2.70626 114.999C3.74457 114.999 4.58635 114.157 4.58635 113.119V66.9151C4.58635 66.7773 4.59262 66.6409 4.6039 66.5055L12.119 74.0206C13.4448 75.3465 14.1748 77.109 14.1748 78.9838V113.119C14.1748 114.157 15.0166 114.999 16.0549 114.999C17.0932 114.999 17.935 114.157 17.935 113.119V78.9838C17.935 76.1045 16.8137 73.3977 14.7777 71.3617L6.49828 63.0823C6.94148 62.7514 7.44609 62.4899 8.0031 62.323L16.4738 59.7818C17.1371 61.6461 22.0629 74.4498 35.035 83.0977C35.3509 83.3083 35.7144 83.4136 36.0779 83.4136C36.4413 83.4136 36.8048 83.3083 37.1207 83.0977C50.5272 74.16 55.3097 60.948 55.7032 59.8041L63.6665 62.2189C63.8485 62.2741 64.032 62.3004 64.2128 62.3004C65.0192 62.3004 65.765 61.7772 66.0111 60.9653C66.3124 59.9716 65.7512 58.922 64.7575 58.6204ZM49.4317 57.2648L43.0783 65.2068C42.9911 65.3158 42.8863 65.3381 42.8036 65.3361C42.7266 65.3349 42.6171 65.3101 42.5333 65.1982L38.9338 60.3988L48.5857 55.5727L49.4317 57.2648ZM36.0779 57.6225L27.0221 53.0947V52.9686C29.7836 54.2275 32.8501 54.9302 36.0779 54.9302C39.2976 54.9302 42.3566 54.2306 45.1128 52.9774V53.105L36.0779 57.6225ZM56.1008 8.39272C57.5176 8.39272 58.6703 9.54534 58.6703 10.9622C58.6703 11.464 58.5224 11.9526 58.2429 12.375C57.9107 12.8766 57.8388 13.5068 58.0493 14.0703C58.2599 14.6339 58.7272 15.0625 59.3065 15.224C60.8968 15.6667 62.0075 17.1161 62.0075 18.7488C62.0075 20.779 60.3558 22.4307 58.3256 22.4307C56.2953 22.4307 54.6436 20.779 54.6436 18.7488C54.6436 17.839 54.9933 16.9579 55.6283 16.268C56.0354 15.8258 56.2063 15.2157 56.0885 14.6263C55.9707 14.037 55.5781 13.5394 55.0327 13.2877C54.1207 12.8668 53.5313 11.9541 53.5313 10.9622C53.5313 9.54534 54.684 8.39272 56.1008 8.39272ZM10.1482 18.7488C10.1484 17.1163 11.2589 15.6669 12.8492 15.2242C13.4288 15.0628 13.8961 14.6341 14.1064 14.0706C14.3167 13.5071 14.2447 12.8769 13.9128 12.3752C13.6333 11.9529 13.4854 11.4643 13.4854 10.9624C13.4854 9.54559 14.6381 8.39297 16.0549 8.39297C17.4717 8.39297 18.6244 9.54534 18.6244 10.9622C18.6244 11.9541 18.035 12.8671 17.123 13.2877C16.5773 13.5394 16.1847 14.037 16.0672 14.6263C15.9494 15.2157 16.1203 15.8258 16.5274 16.268C17.1624 16.9579 17.5121 17.839 17.5121 18.7488C17.5121 20.779 15.8604 22.4307 13.8301 22.4307C11.7999 22.4307 10.1482 20.779 10.1482 18.7488ZM17.935 33.0272C17.935 31.9888 17.0932 31.1471 16.0549 31.1471C14.6722 31.1471 13.4807 30.2338 13.2839 29.0228C13.0595 27.6431 13.9038 26.3739 15.2475 26.0711C15.3202 26.0548 15.3901 26.0332 15.4588 26.0092C18.7813 25.2641 21.272 22.2928 21.272 18.749C21.272 17.5991 21.0023 16.4764 20.4939 15.4588C21.6801 14.2884 22.3845 12.6741 22.3845 10.9622C22.3845 9.69299 22.0075 8.51054 21.3618 7.5186C24.2313 5.08953 27.8328 3.76043 31.6283 3.76043H40.5274C44.3397 3.76043 47.9304 5.08301 50.7969 7.51409C50.1492 8.50703 49.7712 9.69098 49.7712 10.9622C49.7712 12.6741 50.4756 14.2884 51.6618 15.4588C51.1532 16.4764 50.8837 17.5991 50.8837 18.749C50.8837 22.3643 53.4757 25.3845 56.8987 26.0523C56.9564 26.0758 57.0155 26.0971 57.0764 26.1152C58.1516 26.4363 59.1135 27.538 58.8721 29.0231C58.6753 30.2341 57.4838 31.1473 56.1011 31.1473C55.0627 31.1473 54.221 31.9891 54.221 33.0274C54.221 43.0315 46.0822 51.1703 36.0781 51.1703C26.074 51.1703 17.935 43.0312 17.935 33.0272ZM22.9744 56.7637L23.57 55.5727L33.2221 60.3988L29.6226 65.1982C29.5389 65.3101 29.4294 65.3349 29.3524 65.3361C29.2702 65.3426 29.1649 65.3158 29.0777 65.2068L22.7743 57.3277C22.8703 57.1522 22.9378 56.9619 22.9744 56.7637ZM36.0779 79.2513C27.6611 73.2693 23.1311 65.4404 21.2058 61.3862L26.1415 67.5556C26.9268 68.5373 28.0912 69.0963 29.3449 69.0963C29.3669 69.0963 29.389 69.096 29.4111 69.0958C30.6898 69.0757 31.8632 68.4774 32.6305 67.4544L34.1975 65.365V73.0733C34.1975 74.1116 35.0393 74.9534 36.0776 74.9534C37.1159 74.9534 37.9577 74.1116 37.9577 73.0733V65.365L39.5247 67.4544C40.292 68.4776 41.4654 69.0757 42.7441 69.0958C42.7662 69.096 42.7883 69.0963 42.8103 69.0963C44.064 69.0963 45.2284 68.5373 46.0137 67.5556L50.9644 61.3671C49.0547 65.4103 44.5383 73.2415 36.0779 79.2513Z" fill="black"/>
<path d="M41.7119 38.2415C40.9054 37.5872 39.7215 37.7108 39.0674 38.5173C38.2678 39.5034 37.2062 40.0464 36.0781 40.0464C34.9501 40.0464 33.8884 39.5034 33.0888 38.5173C32.435 37.7108 31.2508 37.5875 30.4443 38.2415C29.6379 38.8955 29.5146 40.0795 30.1686 40.8859C31.6739 42.742 33.828 43.8063 36.0784 43.8063C38.3287 43.8063 40.482 42.7417 41.9876 40.8859C42.6416 40.0795 42.5183 38.8955 41.7119 38.2415Z" fill="black"/>
<path d="M27.1788 26.6975C26.1404 26.6975 25.2987 27.5393 25.2987 28.5776V30.8024C25.2987 31.8407 26.1404 32.6825 27.1788 32.6825C28.2171 32.6825 29.0588 31.8407 29.0588 30.8024V28.5776C29.0588 27.5393 28.2171 26.6975 27.1788 26.6975Z" fill="black"/>
<path d="M44.9769 26.6975C43.9386 26.6975 43.0969 27.5393 43.0969 28.5776V30.8024C43.0969 31.8407 43.9386 32.6825 44.9769 32.6825C46.0153 32.6825 46.857 31.8407 46.857 30.8024V28.5776C46.857 27.5393 46.0153 26.6975 44.9769 26.6975Z" fill="black"/>
<path d="M64.1045 67.2942C63.3702 66.5599 62.1798 66.5599 61.4458 67.2942L57.378 71.3619C55.342 73.3979 54.2207 76.1048 54.2207 78.9841V113.119C54.2207 114.157 55.0625 114.999 56.1008 114.999C57.1391 114.999 57.9809 114.157 57.9809 113.119V78.9841C57.9809 77.1092 58.7111 75.3465 60.0367 74.0209L64.1045 69.9531C64.8387 69.2189 64.8387 68.0284 64.1045 67.2942Z" fill="black"/>
<path d="M101.781 53.8149C100.974 53.1607 99.7901 53.2842 99.1363 54.0907C98.3366 55.0768 97.275 55.6198 96.147 55.6198C95.0189 55.6198 93.9573 55.0768 93.1576 54.0907C92.5038 53.2842 91.3196 53.1609 90.5132 53.8149C89.7068 54.469 89.5834 55.6529 90.2375 56.4593C91.7425 58.3151 93.8964 59.3797 96.1467 59.3797C98.397 59.3797 100.551 58.3151 102.056 56.4593C102.71 55.6529 102.587 54.469 101.781 53.8149Z" fill="black"/>
<path d="M76.1238 86.7664C75.0854 86.7664 74.2437 87.6082 74.2437 88.6465V113.119C74.2437 114.157 75.0854 114.999 76.1238 114.999C77.1621 114.999 78.0038 114.157 78.0038 113.119V88.6465C78.0038 87.6082 77.1621 86.7664 76.1238 86.7664Z" fill="black"/>
<path d="M116.17 86.7664C115.131 86.7664 114.29 87.6082 114.29 88.6465V113.119C114.29 114.157 115.131 114.999 116.17 114.999C117.208 114.999 118.05 114.157 118.05 113.119V88.6465C118.05 87.6082 117.208 86.7664 116.17 86.7664Z" fill="black"/>
<path d="M122.889 73.9184C124.063 72.4288 124.724 70.572 124.724 68.6235C124.724 65.4552 122.986 62.6198 120.267 61.1448C120.272 61.042 120.275 60.9395 120.275 60.8369C120.275 58.3931 119.091 56.156 117.16 54.7793C117.288 54.3456 117.407 53.9089 117.507 53.4667C117.75 52.3931 117.906 51.2585 117.979 50.0151C120.938 45.6488 122.499 40.555 122.499 35.2519C122.499 20.7211 110.678 8.89934 96.1467 8.89934C81.6159 8.89934 69.7941 20.7211 69.7941 35.2519C69.7941 40.5555 71.3556 45.6493 74.3149 50.0154C74.3878 51.2595 74.5432 52.3938 74.7866 53.4665C74.8869 53.9084 75.0057 54.3451 75.1336 54.779C73.2021 56.1558 72.0189 58.3928 72.0189 60.8369C72.0189 60.9395 72.0214 61.042 72.0262 61.1448C69.3068 62.6198 67.5694 65.4554 67.5694 68.6235C67.5694 70.572 68.2306 72.4288 69.4048 73.9184C65.5303 76.2431 63.1198 80.4192 63.1198 85.0537V113.12C63.1198 114.158 63.9616 115 64.9999 115C66.0382 115 66.88 114.158 66.88 113.12V85.0537C66.88 81.252 69.1609 77.8831 72.6907 76.471L73.0504 76.3271C78.6112 83.8425 87.1779 88.3018 96.147 88.3018C105.239 88.3018 113.618 83.9452 119.242 76.3266L119.603 76.471C123.133 77.8831 125.414 81.252 125.414 85.0537V113.119C125.414 114.157 126.255 114.999 127.294 114.999C128.332 114.999 129.174 114.157 129.174 113.119V85.0537C129.174 80.4192 126.763 76.2431 122.889 73.9184ZM73.5543 35.2519C73.5543 22.7945 83.6892 12.6595 96.1467 12.6595C108.604 12.6595 118.739 22.7945 118.739 35.2519C118.739 38.4208 118.088 41.5014 116.836 44.3445C114.127 38.5155 108.106 36.8821 102.249 35.2973C97.5139 34.0161 92.6177 32.691 88.4218 29.3344C87.9783 28.9797 87.398 28.8441 86.844 28.9662C86.2895 29.088 85.8197 29.4537 85.5658 29.9616C85.5463 30.0005 83.5767 33.8729 79.7323 35.7952C78.8035 36.2594 78.427 37.3887 78.8915 38.3175C79.3558 39.2462 80.4848 39.623 81.4138 39.1583C84.4739 37.6281 86.5823 35.1985 87.771 33.5165C92.1504 36.4599 96.9624 37.7622 101.267 38.9269C102.68 39.3092 103.98 39.6716 105.168 40.0494C105.127 40.0487 105.087 40.0464 105.046 40.0464C102.754 40.0464 100.744 41.27 99.6326 43.0982C98.5933 42.5632 97.4004 42.2712 96.1467 42.2712C94.8928 42.2712 93.6996 42.5632 92.6605 43.0982C91.5493 41.2702 89.5386 40.0464 87.2476 40.0464C83.7574 40.0464 80.918 42.8858 80.918 46.376C80.918 49.8662 83.7574 52.7057 87.2476 52.7057C90.5004 52.7057 93.187 50.239 93.5374 47.0779C94.1508 46.4252 95.1099 46.0314 96.1467 46.0314C97.1833 46.0314 98.1424 46.4252 98.7558 47.0779C99.1062 50.239 101.793 52.7057 105.046 52.7057C108.536 52.7057 111.375 49.8662 111.375 46.376C111.375 44.5476 110.595 42.8986 109.351 41.7422C112.04 43.2075 113.694 45.253 114.307 48.8658C114.275 48.9919 114.255 49.1227 114.25 49.2578C114.205 50.5115 114.071 51.616 113.84 52.6347C112.945 56.5787 110.708 60.1599 107.542 62.719C104.285 65.3522 100.344 66.7439 96.1465 66.7439C91.9486 66.7439 88.0079 65.3522 84.7506 62.719C81.5848 60.1601 79.3485 56.5787 78.4533 52.6347C78.2227 51.618 78.0883 50.5145 78.0432 49.2611C78.0252 48.7633 77.8148 48.3163 77.4849 47.9909C74.9122 44.2305 73.5543 39.8331 73.5543 35.2519ZM107.615 46.3758C107.615 47.7926 106.463 48.9452 105.046 48.9452C103.629 48.9452 102.476 47.7926 102.476 46.3758C102.476 44.959 103.629 43.8063 105.046 43.8063C106.463 43.8063 107.615 44.959 107.615 46.3758ZM89.8171 46.3758C89.8171 47.7926 88.6645 48.9452 87.2476 48.9452C85.8308 48.9452 84.6782 47.7926 84.6782 46.3758C84.6782 44.959 85.8308 43.8063 87.2476 43.8063C88.6645 43.8063 89.8171 44.959 89.8171 46.3758ZM106.955 71.4061C104.032 74.1197 100.208 75.6423 96.1465 75.6423C92.0887 75.6423 88.2629 74.1184 85.3387 71.4055C86.5129 70.8917 87.4853 70.0481 88.1526 68.9865C90.6849 69.9784 93.3988 70.5036 96.1467 70.5036C98.8946 70.5036 101.608 69.9784 104.141 68.9865C104.808 70.0486 105.781 70.8922 106.955 71.4061ZM73.0314 72.2849C71.9582 71.378 71.3298 70.0444 71.3298 68.6233C71.3295 66.5444 72.6777 64.7197 74.6841 64.0827C75.6447 63.7779 76.1937 62.7699 75.9295 61.7975C75.8267 61.4203 75.7791 61.1149 75.7791 60.8369C75.7791 59.9651 76.0849 59.1479 76.6128 58.5036C78.0063 61.2433 79.9717 63.6907 82.387 65.643C83.1345 66.2471 83.9201 66.7978 84.7363 67.2949C84.4721 67.5993 84.1385 67.8422 83.7524 67.9966L73.0314 72.2849ZM96.1467 84.5416C88.5687 84.5416 81.5657 81.0409 76.676 74.877L81.5542 72.9259C85.2861 77.0561 90.5398 79.4027 96.147 79.4027C101.759 79.4027 107.008 77.0569 110.739 72.9257L115.619 74.8777C110.727 81.0396 103.712 84.5416 96.1467 84.5416ZM119.262 72.2852L108.541 67.9966C108.155 67.8422 107.821 67.5993 107.557 67.2949C108.373 66.7976 109.159 66.2471 109.906 65.643C112.322 63.6907 114.287 61.243 115.681 58.5036C116.209 59.1479 116.514 59.9651 116.514 60.8369C116.514 61.1149 116.467 61.4203 116.364 61.7975C116.099 62.7699 116.649 63.7779 117.609 64.0827C119.616 64.7197 120.964 66.5444 120.964 68.6235C120.964 70.0446 120.335 71.3782 119.262 72.2852Z" fill="black"/>
</svg>
