<svg width="58" height="61" viewBox="0 0 58 61" fill="none" xmlns="http://www.w3.org/2000/svg">
<path d="M44.194 8.88707H17.1348C10.3855 8.88707 7.29243 13.9562 7.25973 18.6948C7.22352 18.9712 7.20278 19.2523 7.20278 19.5382V54.0517C7.20278 57.6072 10.0954 60.5 13.6511 60.5H42.5214C44.5114 60.5 46.173 59.0713 46.5365 57.1857H46.5743C48.8611 57.1857 50.7216 55.3252 50.7216 53.0383V15.4146C50.7216 11.8153 47.7933 8.88707 44.194 8.88707ZM40.9893 13.1503C40.5995 13.1503 40.2837 13.4663 40.2837 13.8559V23.1913C40.2837 23.3272 40.1965 23.3919 40.1445 23.4184C40.0925 23.4447 39.9888 23.4772 39.8788 23.3976L37.3116 21.5318C37.0642 21.3521 36.7294 21.3521 36.482 21.5318L33.9148 23.3976C33.8049 23.4772 33.7012 23.4448 33.6491 23.4184C33.5971 23.3919 33.5099 23.3272 33.5099 23.1913V13.8559C33.5099 12.8934 34.2931 12.1103 35.2557 12.1103H40.4038C41.1154 12.1103 41.729 12.5383 42.0005 13.1503H40.9893ZM17.1348 11.2389H33.4921C32.8561 11.6689 32.3849 12.3245 32.1933 13.0899H13.651C12.925 13.0899 12.2275 13.2123 11.5757 13.4345C12.7387 12.1625 14.5119 11.2389 17.1348 11.2389ZM9.55461 54.0515V19.5381C9.55461 17.2793 11.3922 15.4417 13.651 15.4417H13.8591V58.1481H13.651C11.3922 58.1481 9.55461 56.3104 9.55461 54.0515ZM44.2593 56.41C44.2593 57.3684 43.4796 58.1479 42.5214 58.1479H15.2702V15.4417H32.0988V23.1913C32.0988 23.8211 32.4474 24.39 33.0086 24.6758C33.2488 24.7983 33.5081 24.8586 33.7661 24.8586C34.1107 24.8586 34.4531 24.7508 34.7444 24.5391L36.8968 22.9747L39.0491 24.5391C39.5586 24.9094 40.2238 24.9619 40.7848 24.6758C41.346 24.39 41.6946 23.8211 41.6946 23.1913V15.4417H42.5212C43.4795 15.4417 44.2591 16.2214 44.2591 17.1796V56.41H44.2593ZM48.3696 53.0382C48.3696 54.0158 47.584 54.812 46.6111 54.8319V17.1796C46.6111 15.2596 45.2807 13.6463 43.4937 13.2088C43.323 12.3926 42.8362 11.691 42.1675 11.2389H44.194C46.4965 11.2389 48.3698 13.1121 48.3698 15.4146V53.0382H48.3696Z" fill="white"/>
<path d="M19.6333 39.713C19.9176 39.713 20.1856 39.5398 20.2927 39.2583L20.8699 37.7429H24.7359L25.3069 39.2563C25.4446 39.621 25.8515 39.8051 26.2162 39.6673C26.5808 39.5297 26.7647 39.1226 26.6272 38.7581L23.6422 30.8486C23.6397 30.842 23.6371 30.8356 23.6346 30.8292C23.4971 30.4951 23.1751 30.2794 22.8139 30.2794C22.8137 30.2794 22.8133 30.2794 22.8131 30.2794C22.4515 30.2797 22.1295 30.4962 21.9926 30.8307C21.9904 30.8361 21.9883 30.8414 21.9863 30.8468L18.9739 38.756C18.8351 39.1201 19.018 39.5278 19.3821 39.6666C19.465 39.6981 19.5499 39.713 19.6333 39.713ZM22.8118 32.6443L24.2034 36.3319H21.4073L22.8118 32.6443Z" fill="white"/>
<path d="M39.5727 38.3017H35.5229L40.0393 31.3702C40.1806 31.1532 40.1918 30.8763 40.0684 30.6488C39.9452 30.4213 39.707 30.2794 39.4482 30.2794H34.3856C33.9959 30.2794 33.68 30.5953 33.68 30.985C33.68 31.3746 33.9959 31.6906 34.3856 31.6906H38.1463L33.6299 38.6221C33.4886 38.839 33.4774 39.1159 33.6007 39.3435C33.724 39.5709 33.9622 39.7127 34.221 39.7127H39.5727C39.9624 39.7127 40.2783 39.3968 40.2783 39.0071C40.2782 38.6176 39.9624 38.3017 39.5727 38.3017Z" fill="white"/>
<path d="M27.6661 35.7016H32.522C32.9117 35.7016 33.2276 35.3857 33.2276 34.9961C33.2276 34.6064 32.9117 34.2905 32.522 34.2905H27.6661C27.2765 34.2905 26.9606 34.6064 26.9606 34.9961C26.9606 35.3857 27.2765 35.7016 27.6661 35.7016Z" fill="white"/>
<path d="M37.5922 44.5434H21.614C20.3773 44.5434 19.3712 45.5496 19.3712 46.7863V52.1141C19.3712 53.3508 20.3773 54.3569 21.614 54.3569H37.5922C38.8288 54.3569 39.835 53.3508 39.835 52.1141V46.7863C39.8349 45.5497 38.8288 44.5434 37.5922 44.5434ZM38.4238 52.1142C38.4238 52.5729 38.0507 52.946 37.5922 52.946H21.614C21.1555 52.946 20.7823 52.5729 20.7823 52.1142V46.7864C20.7823 46.3277 21.1555 45.9546 21.614 45.9546H37.5922C38.0507 45.9546 38.4238 46.3277 38.4238 46.7864V52.1142Z" fill="white"/>
<path d="M34.8624 48.7447H24.3438C23.9541 48.7447 23.6382 49.0606 23.6382 49.4503C23.6382 49.8399 23.9541 50.1559 24.3438 50.1559H34.8624C35.252 50.1559 35.568 49.8399 35.568 49.4503C35.568 49.0605 35.252 48.7447 34.8624 48.7447Z" fill="white"/>
<path d="M26.9075 20.1543C26.8988 20.1543 26.8901 20.1542 26.8815 20.154C25.3768 20.1215 23.8891 20.1161 22.4599 20.1385C21.8137 20.1471 21.2758 19.6303 21.2657 18.981C21.2557 18.3315 21.7739 17.7969 22.4232 17.7869C23.8817 17.7644 25.3986 17.7695 26.9323 17.8027C27.5817 17.8167 28.0966 18.3546 28.0825 19.0038C28.0687 19.6444 27.545 20.1543 26.9075 20.1543Z" fill="white"/>
<path d="M18.5906 20.1543H17.9798C17.3303 20.1543 16.8038 19.6278 16.8038 18.9783C16.8038 18.329 17.3303 17.8023 17.9798 17.8023H18.5906C19.24 17.8023 19.7666 18.3289 19.7666 18.9783C19.7666 19.6278 19.24 20.1543 18.5906 20.1543Z" fill="white"/>
<path d="M47.4181 4.15973C47.4181 5.3643 46.4417 6.3407 45.2371 6.3407C44.0325 6.3407 43.0561 5.3643 43.0561 4.15973C43.0561 2.95516 44.0325 1.97876 45.2371 1.97876C46.4417 1.97864 47.4181 2.95516 47.4181 4.15973Z" fill="white"/>
<path d="M1.41667 13.6924C1.88848 13.4981 2.1134 12.958 1.91904 12.4861C1.72468 12.0143 1.18464 11.7893 0.712832 11.9836C0.241023 12.178 0.0161048 12.718 0.210464 13.1899C0.404823 13.6618 0.94486 13.8868 1.41667 13.6924Z" fill="white"/>
<path d="M54.8997 6.62406L55.6406 8.70742C55.6723 8.7966 55.7351 8.86726 55.8144 8.90301L57.6654 9.73691C57.9269 9.85468 57.9269 10.2714 57.6654 10.3892L55.8144 11.2231C55.7352 11.2588 55.6724 11.3295 55.6406 11.4187L54.8997 13.502C54.795 13.7964 54.4248 13.7964 54.3202 13.502L53.5792 11.4187C53.5474 11.3295 53.4846 11.2588 53.4054 11.2231L51.5544 10.3892C51.293 10.2714 51.293 9.85468 51.5544 9.73691L53.4054 8.90301C53.4846 8.86726 53.5474 8.7966 53.5792 8.70742L54.3202 6.62406C54.4248 6.32969 54.795 6.32969 54.8997 6.62406Z" fill="white"/>
<path d="M5.00458 0.797509L6.0227 3.60602C6.0663 3.72626 6.15255 3.82153 6.26153 3.86969L8.80485 4.99387C9.16414 5.15266 9.16414 5.71434 8.80485 5.87324L6.26153 6.99742C6.15266 7.04559 6.0663 7.14086 6.0227 7.26109L5.00458 10.0696C4.86079 10.4664 4.35208 10.4664 4.20829 10.0696L3.19017 7.26109C3.14657 7.14086 3.06032 7.04559 2.95134 6.99742L0.408022 5.87324C0.0487257 5.71446 0.0487257 5.15278 0.408022 4.99387L2.95134 3.86969C3.06021 3.82153 3.14657 3.72626 3.19017 3.60602L4.20829 0.797509C4.35208 0.40083 4.86079 0.40083 5.00458 0.797509Z" fill="white"/>
</svg>
