<svg width="90" height="115" viewBox="0 0 90 115" fill="none" xmlns="http://www.w3.org/2000/svg">
<path d="M37.6342 37.6944V35.8939C37.6342 34.9636 36.88 34.2094 35.9497 34.2094C35.0193 34.2094 34.2651 34.9636 34.2651 35.8939V37.6944C34.2651 38.6247 35.0193 39.379 35.9497 39.379C36.88 39.379 37.6342 38.6247 37.6342 37.6944Z" fill="black"/>
<path d="M53.9548 39.379C54.8851 39.379 55.6394 38.6247 55.6394 37.6944V35.8939C55.6394 34.9636 54.8851 34.2094 53.9548 34.2094C53.0245 34.2094 52.2702 34.9636 52.2702 35.8939V37.6944C52.2702 38.6247 53.0242 39.379 53.9548 39.379Z" fill="black"/>
<path d="M16.1443 99.0274C15.2139 99.0274 14.4597 99.7816 14.4597 100.712V113.315C14.4597 114.246 15.2139 115 16.1443 115C17.0746 115 17.8288 114.246 17.8288 113.315V100.712C17.8288 99.7816 17.0746 99.0274 16.1443 99.0274Z" fill="black"/>
<path d="M80.4436 76.3063L68.9598 72.1304L61.4763 69.137C60.7348 68.8403 59.9541 68.8133 59.2403 69.013V61.9075C64.8585 58.0002 68.8127 51.8583 69.8012 44.7804H70.8023C74.0856 44.7804 76.9016 42.3409 77.2135 39.2265C77.3883 37.481 76.8173 35.7383 75.6471 34.445C75.0809 33.8192 74.3969 33.3242 73.6447 32.978V19.6895C73.6449 8.83276 64.8122 0 53.9552 0H35.9501C25.0934 0 16.2606 8.83276 16.2606 19.6895V21.6059H3.54076C2.61043 21.6059 1.85619 22.3601 1.85619 23.2904C1.85619 24.2208 2.61043 24.975 3.54076 24.975H16.2608V26.8914C16.2608 27.8217 17.0151 28.5759 17.9454 28.5759C18.8757 28.5759 19.63 27.8217 19.63 26.8914V24.975H43.2827C38.4125 28.0488 29.7428 32.4089 19.7454 32.4089H19.1026C15.8195 32.4089 13.0033 34.8484 12.6914 37.9624C12.5164 39.7078 13.0871 41.4505 14.2573 42.7441C15.4282 44.0383 17.1007 44.7806 18.8452 44.7806H20.1026C21.0906 51.8607 25.0446 58.0034 30.6644 61.9102V69.0135C29.9506 68.8138 29.1698 68.8408 28.4284 69.1375L20.9448 72.1308L9.46102 76.3068C3.83545 78.3525 0.0557251 83.7487 0.0557251 89.7346V113.315C0.0557251 114.246 0.809963 115 1.7403 115C2.67063 115 3.42487 114.246 3.42487 113.315V89.7344C3.42487 85.16 6.31334 81.0361 10.6124 79.4726L20.7243 75.7956C22.6299 79.2977 28.4596 88.6578 39.6669 95.9437V113.315C39.6669 114.246 40.4212 115 41.3515 115C42.2818 115 43.0361 114.246 43.0361 113.315V89.793H46.8688V113.315C46.8688 114.246 47.623 115 48.5534 115C49.4837 115 50.2379 114.246 50.2379 113.315V95.9428C55.0646 92.8046 59.4245 88.9327 63.2062 84.4201C63.8039 83.707 63.7102 82.6446 62.9971 82.0471C62.284 81.4492 61.2213 81.5429 60.6241 82.2562C57.5436 85.9317 54.0595 89.1564 50.2379 91.8717V84.9585C50.2379 83.8417 50.7453 82.7888 51.6303 82.0698C56.2168 78.3428 58.8948 74.3583 60.083 72.315C60.1136 72.2627 60.1695 72.2436 60.2252 72.2656L65.9995 74.5753C65.7117 75.0858 65.3474 75.7046 64.9041 76.4076C64.4079 77.1946 64.6435 78.2348 65.4305 78.7312C66.2176 79.2276 67.2577 78.9915 67.7541 78.2047C68.3619 77.2409 68.8327 76.4231 69.1768 75.7944L79.2928 79.4729C83.5918 81.0361 86.4803 85.16 86.4803 89.7346V113.315C86.4803 114.246 87.2345 115 88.1648 115C89.0952 115 89.8494 114.246 89.8494 113.315V89.7344C89.8487 83.7483 86.0692 78.3521 80.4436 76.3063ZM70.2758 19.6895V21.6059H61.0408V19.6895C61.0408 18.6327 61.9006 17.7731 62.9574 17.7731H70.1595C70.2334 18.4022 70.2758 19.0408 70.2758 19.6895ZM58.2489 24.975C55.6782 26.7096 53.1343 27.779 51.553 28.3448L50.7105 24.975H58.2489ZM66.4424 24.975H70.2758V32.4089H68.3588C67.302 32.4089 66.4424 31.5491 66.4424 30.4925V24.975ZM19.63 19.6895C19.63 10.6905 26.9513 3.36914 35.9503 3.36914H53.9555C61.1048 3.36914 67.1908 7.99205 69.3924 14.404H62.9574C60.0428 14.404 57.6716 16.7752 57.6716 19.6895V21.6059H19.63V19.6895ZM23.2305 41.2953C23.2305 40.365 22.4762 39.6108 21.5459 39.6108C20.6156 39.6108 19.8613 40.365 19.8613 41.2953V41.4112H18.8452C18.0508 41.4112 17.2891 41.073 16.7557 40.4834C16.215 39.8859 15.9623 39.1099 16.0436 38.2981C16.1852 36.8849 17.529 35.7778 19.1026 35.7778H19.7454C32.6519 35.7778 43.2081 29.3082 47.5429 26.193L48.7198 30.9009C48.9112 31.6663 49.598 32.1773 50.3527 32.1773C50.4879 32.1773 50.6254 32.1609 50.7626 32.1266C51.0558 32.0533 57.5887 30.3768 63.0737 25.4952V30.4923C63.0737 33.4068 65.4449 35.7778 68.3592 35.7778H71.0599C71.8544 35.7778 72.6158 36.1158 73.1495 36.7054C73.6899 37.3029 73.943 38.0789 73.8615 38.8907C73.72 40.3039 72.3764 41.411 70.8027 41.411H70.0429V41.3124C70.0429 40.3823 69.2891 39.6281 68.359 39.6278C68.3588 39.6278 68.3585 39.6278 68.3583 39.6278C67.4284 39.6278 66.6744 40.3812 66.6737 41.3113C66.665 53.2798 56.921 63.0171 44.9527 63.0171C32.9747 63.0173 23.2305 53.2731 23.2305 41.2953ZM23.9097 74.5732L29.6795 72.2654C29.7349 72.2434 29.7911 72.2625 29.8216 72.3148C31.0098 74.3581 33.6876 78.3424 38.2741 82.0693C39.1591 82.7885 39.6665 83.8415 39.6665 84.9583V91.8697C30.7401 85.514 25.754 77.824 23.9097 74.5732ZM49.5053 79.4547C47.8297 80.8165 46.8686 82.8222 46.8686 84.958V86.4238H43.0359V84.958C43.0359 82.8222 42.0747 80.8162 40.3992 79.4544C37.4325 77.0437 35.3365 74.4838 34.0335 72.634V63.8829C37.3364 65.486 41.0411 66.3864 44.9524 66.3864C48.8633 66.3864 52.5681 65.4853 55.8714 63.8814V72.634C54.5682 74.4838 52.4721 77.0437 49.5053 79.4547Z" fill="black"/>
<path d="M73.7602 99.0274C72.8298 99.0274 72.0756 99.7816 72.0756 100.712V113.315C72.0756 114.246 72.8298 115 73.7602 115C74.6905 115 75.4447 114.246 75.4447 113.315V100.712C75.4447 99.7816 74.6905 99.0274 73.7602 99.0274Z" fill="black"/>
<path d="M52.6604 49.9365C53.4553 49.4529 53.7073 48.4166 53.2237 47.6217C52.7403 46.827 51.704 46.5748 50.9089 47.0584C49.2611 48.061 47.1455 48.6133 44.952 48.6133C42.7587 48.6133 40.6431 48.061 38.9954 47.0584C38.2007 46.5748 37.1643 46.827 36.6805 47.6217C36.1969 48.4166 36.449 49.4527 37.2439 49.9365C39.4435 51.2752 42.1089 51.9827 44.952 51.9827C47.7951 51.9827 50.4608 51.2752 52.6604 49.9365Z" fill="black"/>
</svg>
